<?xml version="1.0" encoding="UTF-8"?>
<svg xmlns="http://www.w3.org/2000/svg" viewBox="0 0 716.2 766.96">
  <defs>
    <style>
      .cls-1, .cls-2 {
        fill: #0d2c5e;
      }

      .cls-3, .cls-4, .cls-5, .cls-2, .cls-6, .cls-7, .cls-8 {
        fill-rule: evenodd;
      }

      .cls-3, .cls-9 {
        fill: #fff;
      }

      .cls-10, .cls-7 {
        fill: #414042;
      }

      .cls-11, .cls-6 {
        fill: #231f20;
      }

      .cls-4 {
        fill: #97233f;
      }

      .cls-5 {
        fill: #0080c6;
      }

      .cls-12, .cls-13 {
        stroke: #000;
        stroke-width: 35px;
      }

      .cls-12, .cls-13, .cls-14, .cls-15 {
        fill: none;
      }

      .cls-12, .cls-15 {
        stroke-miterlimit: 3;
      }

      .cls-13, .cls-14 {
        stroke-miterlimit: 5;
      }

      .cls-16 {
        fill: #e31837;
      }

      .cls-14, .cls-15 {
        stroke: #b31942;
        stroke-width: 12px;
      }

      .cls-17 {
        fill: #ffb81c;
      }

      .cls-8 {
        fill: #ffc20e;
      }
    </style>
  </defs>
  <g id="SCHILD">
    <path class="cls-11" d="M350,760.75c-66.81-37.7-125.44-86.29-174.26-144.41-39-46.43-71.82-98.97-97.57-156.18-43.88-97.5-51.98-174.39-52.3-177.61l-1.24-12.41,9.89-7.59c1.54-1.18,38.3-29.22,96.89-57.67,54.24-26.35,138.32-58,230.82-59.21h.58c92.55,1.2,175.84,32.89,229.42,59.26,57.88,28.49,93.95,56.58,95.46,57.76l9.69,7.6-1.23,12.26c-.32,3.23-8.42,80.11-52.3,177.61-25.75,57.21-58.57,109.76-97.57,156.18-48.82,58.12-107.45,106.71-174.26,144.41l-11.01,6.21-11.01-6.21Z"/>
    <path class="cls-16" d="M363.43,179.54c-166.52,2.17-306.02,109.27-306.02,109.27,0,0,29.42,293.45,304.56,448.72,275.14-155.27,304.56-448.72,304.56-448.72,0,0-136.57-107.11-303.09-109.27Z"/>
    <path class="cls-17" d="M363.96,200c-147.62,1.92-271.29,96.87-271.29,96.87,0,0,26.08,260.14,269.99,397.78,243.91-137.64,269.99-397.78,269.99-397.78,0,0-121.06-94.95-268.69-96.87Z"/>
    <path class="cls-17" d="M114.98,429.97c36.93,90.22,108.95,206.03,247.68,284.32,138.73-78.29,210.75-194.09,247.68-284.32H114.98Z"/>
    <path class="cls-9" d="M569.44,246.76v263.25c3.39-5.73,6.64-11.44,9.75-17.11v-241.08c-3.16-1.68-6.41-3.36-9.75-5.06ZM357.81,191.87v520.29c1.24.71,2.47,1.42,3.71,2.12,2.03-1.14,4.04-2.3,6.04-3.46V191.86c-1.55-.04-3.11-.09-4.67-.11-1.7.02-3.39.07-5.09.12ZM146.17,497.11c3.11,5.57,6.36,11.18,9.75,16.81V246.24c-3.34,1.66-6.59,3.32-9.75,4.96v245.91Z"/>
  </g>
  <g id="FOOTBALLSCHLAND_Kopie">
    <g>
      <g>
        <path d="M99.63,57.61v36.74c-8.25-1.63-16.47-3.14-24.67-4.52-5.09,1.76-10.17,3.56-15.23,5.41v21.82c6.99-2.56,14.01-5.02,21.05-7.4v21c-7.04,2.37-14.06,4.84-21.05,7.4v24.77c2.22,7.23,4.44,14.46,6.66,21.71-13.82,4.93-27.56,10.22-41.18,15.86,2.19-8.95,4.39-17.88,6.58-26.81v-67.58c-2.2-7.15-4.39-14.29-6.58-21.42,24.49-10.14,49.32-19.13,74.41-26.97Z"/>
        <path d="M179.81,117.85c0,2.52-.03,5.17-.07,7.97-.05,2.8-.3,5.59-.75,8.36-.45,2.78-1.19,5.48-2.24,8.11-1.04,2.63-2.61,5.05-4.7,7.26-2.58,2.76-5.56,4.74-8.93,5.96-3.37,1.22-6.59,2.21-9.66,2.95-6.38,1.56-12.75,3.19-19.11,4.89-1.87.5-3.84.98-5.91,1.44-2.07.46-4.11.73-6.12.81-2.01.08-3.93-.11-5.74-.57-1.82-.46-3.41-1.35-4.78-2.7-2.26-2.39-3.58-5.22-3.97-8.49-.39-3.27-.64-6.8-.73-10.6v-56.76c0-2.08.02-4.24.07-6.5.05-2.25.24-4.5.59-6.74.34-2.24.86-4.47,1.54-6.7.68-2.23,1.71-4.37,3.09-6.41,2.55-3.92,5.54-6.65,8.98-8.18,3.44-1.52,6.93-2.77,10.47-3.73,6.84-1.85,13.71-3.62,20.58-5.31,3.07-.75,5.74-1.28,8.02-1.6,2.28-.32,4.29-.43,6.02-.33,1.73.1,3.25.47,4.54,1.11,1.29.64,2.48,1.56,3.58,2.74,1.09,1.18,1.99,2.5,2.68,3.93.69,1.44,1.22,3.16,1.57,5.16.35,2,.6,4.3.75,6.9.15,2.59.22,5.59.22,8.97v48.06ZM135.54,71.34v67.58c5.17-1.38,10.36-2.71,15.55-3.99,0-22.53,0-45.05,0-67.58-5.19,1.28-10.38,2.61-15.55,3.99Z"/>
        <path d="M264.24,104.24c0,2.52-.03,5.17-.08,7.96-.05,2.79-.3,5.56-.75,8.29-.45,2.73-1.21,5.36-2.27,7.89-1.06,2.53-2.64,4.79-4.75,6.79-2.62,2.5-5.63,4.19-9.05,5.08-3.42.89-6.68,1.55-9.79,2-6.48.92-12.94,1.92-19.4,2.99-1.9.32-3.9.6-6,.85-2.1.26-4.18.32-6.22.2-2.05-.12-4-.5-5.84-1.14-1.85-.64-3.47-1.69-4.87-3.18-2.3-2.62-3.64-5.58-4.04-8.89-.4-3.31-.65-6.87-.75-10.68,0-18.92,0-37.84,0-56.76,0-2.08.02-4.24.07-6.49.05-2.25.25-4.48.6-6.68.35-2.2.87-4.38,1.57-6.54.7-2.16,1.74-4.2,3.14-6.11,2.59-3.67,5.64-6.1,9.14-7.28,3.5-1.18,7.05-2.08,10.65-2.68,6.96-1.17,13.92-2.26,20.9-3.27,3.11-.45,5.82-.71,8.13-.8,2.31-.09,4.35,0,6.11.27,1.76.27,3.29.79,4.6,1.56,1.31.77,2.51,1.8,3.62,3.09,1.11,1.29,2.01,2.69,2.72,4.2.7,1.51,1.23,3.28,1.59,5.31.35,2.04.6,4.36.76,6.97.15,2.61.23,5.61.23,9,0,16.02,0,32.04,0,48.06ZM219.34,53.35v67.58c5.26-.86,10.52-1.68,15.79-2.45,0-22.53,0-45.05,0-67.58-5.27.77-10.53,1.58-15.79,2.45Z"/>
        <path d="M362.72,60.25c-6.88-6.18-13.76-12.29-20.64-18.31-3.59.08-7.18.18-10.77.31v67.58c2.33,7.96,4.65,15.92,6.98,23.9-14.36.39-28.72,1.12-43.05,2.21,2.32-8.21,4.64-16.42,6.97-24.62V43.75c-3.59.24-7.17.51-10.75.8-6.86,6.73-13.72,13.54-20.57,20.43V22.33c30.53-3.18,61.18-4.75,91.83-4.72v42.65Z"/>
        <path d="M419.29,19.47c1.72.11,3.58.27,5.6.47,2.02.2,4.04.52,6.06.95,2.02.43,3.96,1.06,5.83,1.87,1.86.82,3.56,1.95,5.07,3.4,1.51,1.45,2.7,3.12,3.55,5.01.86,1.89,1.49,3.86,1.89,5.92.4,2.06.63,4.16.68,6.3.05,2.14.07,4.14.08,5.99,0,1.53-.03,3.2-.08,5-.05,1.8-.18,3.62-.38,5.46-.2,1.84-.53,3.61-.98,5.32-.45,1.71-1.13,3.23-2.04,4.56-.91,1.56-2.02,2.74-3.33,3.55-1.31.81-2.57,1.44-3.78,1.88-1.21.44-2.34.73-3.4.86-1.06.13-1.79.24-2.19.31,2.42.96,4.64,2.02,6.66,3.18,2.02,1.16,3.88,2.92,5.6,5.26,1.51,2.11,2.54,4.45,3.1,7.02.55,2.57.83,6.31.83,11.24,0,.11,0,.79,0,2.05,0,1.26-.03,2.76-.08,4.5-.05,1.75-.13,3.6-.23,5.55-.1,1.96-.3,3.74-.61,5.35-.6,4.21-1.79,7.37-3.55,9.5-1.77,2.13-3.91,3.63-6.43,4.51-2.52.88-5.32,1.28-8.4,1.21-3.08-.07-6.19-.21-9.31-.41-17.73-1.16-35.48-1.78-53.23-1.87,2.33-8.03,4.65-16.04,6.98-24.05V41.79c-2.33-8.07-4.65-16.13-6.98-24.17,17.7.09,35.41.71,53.08,1.86ZM402.16,64.45c5.61.26,11.22.57,16.82.93v-21.82c-5.61-.36-11.21-.67-16.82-.93,0,7.27,0,14.54,0,21.82ZM402.16,110.22c5.61.26,11.22.57,16.82.93v-24.44c-5.61-.36-11.21-.67-16.82-.93,0,8.15,0,16.29,0,24.44Z"/>
        <path d="M521.23,32.13c4.94,31.47,9.88,62.99,14.81,94.55,2.39,8.52,4.78,17.05,7.17,25.59-10.8-2.27-21.63-4.34-32.48-6.2-1.25-9.62-2.5-19.24-3.75-28.85-5.96-1-11.92-1.93-17.89-2.8-1.2,9.23-2.41,18.46-3.61,27.69-10.94-1.55-21.91-2.9-32.89-4.03,2.62-7.77,5.24-15.52,7.86-23.26,4.88-30.02,9.76-59.99,14.64-89.92,15.43,2,30.82,4.41,46.15,7.23ZM491.34,94.75c4.46.66,8.92,1.36,13.38,2.09-2.2-16.55-4.41-33.09-6.61-49.62-2.26,15.83-4.51,31.67-6.77,47.52Z"/>
        <path d="M587.64,47.03c-2.22,7.45-4.44,14.91-6.66,22.37v67.58c4.25,1.09,8.48,2.21,12.72,3.37v-20.5c8.86,2.42,17.69,4.98,26.49,7.68v44.62c-24.64-7.56-49.52-14.02-74.59-19.37,2.29-7.55,4.57-15.09,6.86-22.62V62.58c-2.28-8.54-4.57-17.08-6.86-25.61,14.07,3,28.09,6.36,42.04,10.06Z"/>
        <path d="M666.93,72.14c-2.17,7.24-4.34,14.48-6.51,21.74,0,22.53,0,45.05,0,67.58,4.15,1.5,8.3,3.03,12.43,4.59,0-6.83,0-13.67,0-20.5,8.66,3.27,17.27,6.68,25.85,10.23v44.62c-24.01-9.95-48.35-18.78-72.95-26.51,2.24-7.33,4.49-14.66,6.73-21.97v-67.58c-2.24-8.76-4.48-17.51-6.73-26.26,13.81,4.34,27.54,9.03,41.18,14.07Z"/>
      </g>
      <g>
        <path class="cls-13" d="M99.63,57.61v36.74c-8.25-1.63-16.47-3.14-24.67-4.52-5.09,1.76-10.17,3.56-15.23,5.41v21.82c6.99-2.56,14.01-5.02,21.05-7.4v21c-7.04,2.37-14.06,4.84-21.05,7.4v24.77c2.22,7.23,4.44,14.46,6.66,21.71-13.82,4.93-27.56,10.22-41.18,15.86,2.19-8.95,4.39-17.88,6.58-26.81v-67.58c-2.2-7.15-4.39-14.29-6.58-21.42,24.49-10.14,49.32-19.13,74.41-26.97Z"/>
        <path class="cls-13" d="M179.81,117.85c0,2.52-.03,5.17-.07,7.97-.05,2.8-.3,5.59-.75,8.36-.45,2.78-1.19,5.48-2.24,8.11-1.04,2.63-2.61,5.05-4.7,7.26-2.58,2.76-5.56,4.74-8.93,5.96-3.37,1.22-6.59,2.21-9.66,2.95-6.38,1.56-12.75,3.19-19.11,4.89-1.87.5-3.84.98-5.91,1.44-2.07.46-4.11.73-6.12.81-2.01.08-3.93-.11-5.74-.57-1.82-.46-3.41-1.35-4.78-2.7-2.26-2.39-3.58-5.22-3.97-8.49-.39-3.27-.64-6.8-.73-10.6v-56.76c0-2.08.02-4.24.07-6.5.05-2.25.24-4.5.59-6.74.34-2.24.86-4.47,1.54-6.7.68-2.23,1.71-4.37,3.09-6.41,2.55-3.92,5.54-6.65,8.98-8.18,3.44-1.52,6.93-2.77,10.47-3.73,6.84-1.85,13.71-3.62,20.58-5.31,3.07-.75,5.74-1.28,8.02-1.6,2.28-.32,4.29-.43,6.02-.33,1.73.1,3.25.47,4.54,1.11,1.29.64,2.48,1.56,3.58,2.74,1.09,1.18,1.99,2.5,2.68,3.93.69,1.44,1.22,3.16,1.57,5.16.35,2,.6,4.3.75,6.9.15,2.59.22,5.59.22,8.97v48.06ZM135.54,71.34v67.58c5.17-1.38,10.36-2.71,15.55-3.99,0-22.53,0-45.05,0-67.58-5.19,1.28-10.38,2.61-15.55,3.99Z"/>
        <path class="cls-13" d="M264.24,104.24c0,2.52-.03,5.17-.08,7.96-.05,2.79-.3,5.56-.75,8.29-.45,2.73-1.21,5.36-2.27,7.89-1.06,2.53-2.64,4.79-4.75,6.79-2.62,2.5-5.63,4.19-9.05,5.08-3.42.89-6.68,1.55-9.79,2-6.48.92-12.94,1.92-19.4,2.99-1.9.32-3.9.6-6,.85-2.1.26-4.18.32-6.22.2-2.05-.12-4-.5-5.84-1.14-1.85-.64-3.47-1.69-4.87-3.18-2.3-2.62-3.64-5.58-4.04-8.89-.4-3.31-.65-6.87-.75-10.68,0-18.92,0-37.84,0-56.76,0-2.08.02-4.24.07-6.49.05-2.25.25-4.48.6-6.68.35-2.2.87-4.38,1.57-6.54.7-2.16,1.74-4.2,3.14-6.11,2.59-3.67,5.64-6.1,9.14-7.28,3.5-1.18,7.05-2.08,10.65-2.68,6.96-1.17,13.92-2.26,20.9-3.27,3.11-.45,5.82-.71,8.13-.8,2.31-.09,4.35,0,6.11.27,1.76.27,3.29.79,4.6,1.56,1.31.77,2.51,1.8,3.62,3.09,1.11,1.29,2.01,2.69,2.72,4.2.7,1.51,1.23,3.28,1.59,5.31.35,2.04.6,4.36.76,6.97.15,2.61.23,5.61.23,9,0,16.02,0,32.04,0,48.06ZM219.34,53.35v67.58c5.26-.86,10.52-1.68,15.79-2.45,0-22.53,0-45.05,0-67.58-5.27.77-10.53,1.58-15.79,2.45Z"/>
        <path class="cls-13" d="M362.72,60.25c-6.88-6.18-13.76-12.29-20.64-18.31-3.59.08-7.18.18-10.77.31v67.58c2.33,7.96,4.65,15.92,6.98,23.9-14.36.39-28.72,1.12-43.05,2.21,2.32-8.21,4.64-16.42,6.97-24.62V43.75c-3.59.24-7.17.51-10.75.8-6.86,6.73-13.72,13.54-20.57,20.43V22.33c30.53-3.18,61.18-4.75,91.83-4.72v42.65Z"/>
        <path class="cls-13" d="M419.29,19.47c1.72.11,3.58.27,5.6.47,2.02.2,4.04.52,6.06.95,2.02.43,3.96,1.06,5.83,1.87,1.86.82,3.56,1.95,5.07,3.4,1.51,1.45,2.7,3.12,3.55,5.01.86,1.89,1.49,3.86,1.89,5.92.4,2.06.63,4.16.68,6.3.05,2.14.07,4.14.08,5.99,0,1.53-.03,3.2-.08,5-.05,1.8-.18,3.62-.38,5.46-.2,1.84-.53,3.61-.98,5.32-.45,1.71-1.13,3.23-2.04,4.56-.91,1.56-2.02,2.74-3.33,3.55-1.31.81-2.57,1.44-3.78,1.88-1.21.44-2.34.73-3.4.86-1.06.13-1.79.24-2.19.31,2.42.96,4.64,2.02,6.66,3.18,2.02,1.16,3.88,2.92,5.6,5.26,1.51,2.11,2.54,4.45,3.1,7.02.55,2.57.83,6.31.83,11.24,0,.11,0,.79,0,2.05,0,1.26-.03,2.76-.08,4.5-.05,1.75-.13,3.6-.23,5.55-.1,1.96-.3,3.74-.61,5.35-.6,4.21-1.79,7.37-3.55,9.5-1.77,2.13-3.91,3.63-6.43,4.51-2.52.88-5.32,1.28-8.4,1.21-3.08-.07-6.19-.21-9.31-.41-17.73-1.16-35.48-1.78-53.23-1.87,2.33-8.03,4.65-16.04,6.98-24.05V41.79c-2.33-8.07-4.65-16.13-6.98-24.17,17.7.09,35.41.71,53.08,1.86ZM402.16,64.45c5.61.26,11.22.57,16.82.93v-21.82c-5.61-.36-11.21-.67-16.82-.93,0,7.27,0,14.54,0,21.82ZM402.16,110.22c5.61.26,11.22.57,16.82.93v-24.44c-5.61-.36-11.21-.67-16.82-.93,0,8.15,0,16.29,0,24.44Z"/>
        <path class="cls-13" d="M521.23,32.13c4.94,31.47,9.88,62.99,14.81,94.55,2.39,8.52,4.78,17.05,7.17,25.59-10.8-2.27-21.63-4.34-32.48-6.2-1.25-9.62-2.5-19.24-3.75-28.85-5.96-1-11.92-1.93-17.89-2.8-1.2,9.23-2.41,18.46-3.61,27.69-10.94-1.55-21.91-2.9-32.89-4.03,2.62-7.77,5.24-15.52,7.86-23.26,4.88-30.02,9.76-59.99,14.64-89.92,15.43,2,30.82,4.41,46.15,7.23ZM491.34,94.75c4.46.66,8.92,1.36,13.38,2.09-2.2-16.55-4.41-33.09-6.61-49.62-2.26,15.83-4.51,31.67-6.77,47.52Z"/>
        <path class="cls-13" d="M587.64,47.03c-2.22,7.45-4.44,14.91-6.66,22.37v67.58c4.25,1.09,8.48,2.21,12.72,3.37v-20.5c8.86,2.42,17.69,4.98,26.49,7.68v44.62c-24.64-7.56-49.52-14.02-74.59-19.37,2.29-7.55,4.57-15.09,6.86-22.62V62.58c-2.28-8.54-4.57-17.08-6.86-25.61,14.07,3,28.09,6.36,42.04,10.06Z"/>
        <path class="cls-13" d="M666.93,72.14c-2.17,7.24-4.34,14.48-6.51,21.74,0,22.53,0,45.05,0,67.58,4.15,1.5,8.3,3.03,12.43,4.59,0-6.83,0-13.67,0-20.5,8.66,3.27,17.27,6.68,25.85,10.23v44.62c-24.01-9.95-48.35-18.78-72.95-26.51,2.24-7.33,4.49-14.66,6.73-21.97v-67.58c-2.24-8.76-4.48-17.51-6.73-26.26,13.81,4.34,27.54,9.03,41.18,14.07Z"/>
      </g>
      <g>
        <path class="cls-14" d="M99.63,57.61v36.74c-8.25-1.63-16.47-3.14-24.67-4.52-5.09,1.76-10.17,3.56-15.23,5.41v21.82c6.99-2.56,14.01-5.02,21.05-7.4v21c-7.04,2.37-14.06,4.84-21.05,7.4v24.77c2.22,7.23,4.44,14.46,6.66,21.71-13.82,4.93-27.56,10.22-41.18,15.86,2.19-8.95,4.39-17.88,6.58-26.81v-67.58c-2.2-7.15-4.39-14.29-6.58-21.42,24.49-10.14,49.32-19.13,74.41-26.97Z"/>
        <path class="cls-14" d="M179.81,117.85c0,2.52-.03,5.17-.07,7.97-.05,2.8-.3,5.59-.75,8.36-.45,2.78-1.19,5.48-2.24,8.11-1.04,2.63-2.61,5.05-4.7,7.26-2.58,2.76-5.56,4.74-8.93,5.96-3.37,1.22-6.59,2.21-9.66,2.95-6.38,1.56-12.75,3.19-19.11,4.89-1.87.5-3.84.98-5.91,1.44-2.07.46-4.11.73-6.12.81-2.01.08-3.93-.11-5.74-.57-1.82-.46-3.41-1.35-4.78-2.7-2.26-2.39-3.58-5.22-3.97-8.49-.39-3.27-.64-6.8-.73-10.6v-56.76c0-2.08.02-4.24.07-6.5.05-2.25.24-4.5.59-6.74.34-2.24.86-4.47,1.54-6.7.68-2.23,1.71-4.37,3.09-6.41,2.55-3.92,5.54-6.65,8.98-8.18,3.44-1.52,6.93-2.77,10.47-3.73,6.84-1.85,13.71-3.62,20.58-5.31,3.07-.75,5.74-1.28,8.02-1.6,2.28-.32,4.29-.43,6.02-.33,1.73.1,3.25.47,4.54,1.11,1.29.64,2.48,1.56,3.58,2.74,1.09,1.18,1.99,2.5,2.68,3.93.69,1.44,1.22,3.16,1.57,5.16.35,2,.6,4.3.75,6.9.15,2.59.22,5.59.22,8.97v48.06ZM135.54,71.34v67.58c5.17-1.38,10.36-2.71,15.55-3.99,0-22.53,0-45.05,0-67.58-5.19,1.28-10.38,2.61-15.55,3.99Z"/>
        <path class="cls-14" d="M264.24,104.24c0,2.52-.03,5.17-.08,7.96-.05,2.79-.3,5.56-.75,8.29-.45,2.73-1.21,5.36-2.27,7.89-1.06,2.53-2.64,4.79-4.75,6.79-2.62,2.5-5.63,4.19-9.05,5.08-3.42.89-6.68,1.55-9.79,2-6.48.92-12.94,1.92-19.4,2.99-1.9.32-3.9.6-6,.85-2.1.26-4.18.32-6.22.2-2.05-.12-4-.5-5.84-1.14-1.85-.64-3.47-1.69-4.87-3.18-2.3-2.62-3.64-5.58-4.04-8.89-.4-3.31-.65-6.87-.75-10.68,0-18.92,0-37.84,0-56.76,0-2.08.02-4.24.07-6.49.05-2.25.25-4.48.6-6.68.35-2.2.87-4.38,1.57-6.54.7-2.16,1.74-4.2,3.14-6.11,2.59-3.67,5.64-6.1,9.14-7.28,3.5-1.18,7.05-2.08,10.65-2.68,6.96-1.17,13.92-2.26,20.9-3.27,3.11-.45,5.82-.71,8.13-.8,2.31-.09,4.35,0,6.11.27,1.76.27,3.29.79,4.6,1.56,1.31.77,2.51,1.8,3.62,3.09,1.11,1.29,2.01,2.69,2.72,4.2.7,1.51,1.23,3.28,1.59,5.31.35,2.04.6,4.36.76,6.97.15,2.61.23,5.61.23,9,0,16.02,0,32.04,0,48.06ZM219.34,53.35v67.58c5.26-.86,10.52-1.68,15.79-2.45,0-22.53,0-45.05,0-67.58-5.27.77-10.53,1.58-15.79,2.45Z"/>
        <path class="cls-14" d="M362.72,60.25c-6.88-6.18-13.76-12.29-20.64-18.31-3.59.08-7.18.18-10.77.31v67.58c2.33,7.96,4.65,15.92,6.98,23.9-14.36.39-28.72,1.12-43.05,2.21,2.32-8.21,4.64-16.42,6.97-24.62V43.75c-3.59.24-7.17.51-10.75.8-6.86,6.73-13.72,13.54-20.57,20.43V22.33c30.53-3.18,61.18-4.75,91.83-4.72v42.65Z"/>
        <path class="cls-14" d="M419.29,19.47c1.72.11,3.58.27,5.6.47,2.02.2,4.04.52,6.06.95,2.02.43,3.96,1.06,5.83,1.87,1.86.82,3.56,1.95,5.07,3.4,1.51,1.45,2.7,3.12,3.55,5.01.86,1.89,1.49,3.86,1.89,5.92.4,2.06.63,4.16.68,6.3.05,2.14.07,4.14.08,5.99,0,1.53-.03,3.2-.08,5-.05,1.8-.18,3.62-.38,5.46-.2,1.84-.53,3.61-.98,5.32-.45,1.71-1.13,3.23-2.04,4.56-.91,1.56-2.02,2.74-3.33,3.55-1.31.81-2.57,1.44-3.78,1.88-1.21.44-2.34.73-3.4.86-1.06.13-1.79.24-2.19.31,2.42.96,4.64,2.02,6.66,3.18,2.02,1.16,3.88,2.92,5.6,5.26,1.51,2.11,2.54,4.45,3.1,7.02.55,2.57.83,6.31.83,11.24,0,.11,0,.79,0,2.05,0,1.26-.03,2.76-.08,4.5-.05,1.75-.13,3.6-.23,5.55-.1,1.96-.3,3.74-.61,5.35-.6,4.21-1.79,7.37-3.55,9.5-1.77,2.13-3.91,3.63-6.43,4.51-2.52.88-5.32,1.28-8.4,1.21-3.08-.07-6.19-.21-9.31-.41-17.73-1.16-35.48-1.78-53.23-1.87,2.33-8.03,4.65-16.04,6.98-24.05V41.79c-2.33-8.07-4.65-16.13-6.98-24.17,17.7.09,35.41.71,53.08,1.86ZM402.16,64.45c5.61.26,11.22.57,16.82.93v-21.82c-5.61-.36-11.21-.67-16.82-.93,0,7.27,0,14.54,0,21.82ZM402.16,110.22c5.61.26,11.22.57,16.82.93v-24.44c-5.61-.36-11.21-.67-16.82-.93,0,8.15,0,16.29,0,24.44Z"/>
        <path class="cls-14" d="M521.23,32.13c4.94,31.47,9.88,62.99,14.81,94.55,2.39,8.52,4.78,17.05,7.17,25.59-10.8-2.27-21.63-4.34-32.48-6.2-1.25-9.62-2.5-19.24-3.75-28.85-5.96-1-11.92-1.93-17.89-2.8-1.2,9.23-2.41,18.46-3.61,27.69-10.94-1.55-21.91-2.9-32.89-4.03,2.62-7.77,5.24-15.52,7.86-23.26,4.88-30.02,9.76-59.99,14.64-89.92,15.43,2,30.82,4.41,46.15,7.23ZM491.34,94.75c4.46.66,8.92,1.36,13.38,2.09-2.2-16.55-4.41-33.09-6.61-49.62-2.26,15.83-4.51,31.67-6.77,47.52Z"/>
        <path class="cls-14" d="M587.64,47.03c-2.22,7.45-4.44,14.91-6.66,22.37v67.58c4.25,1.09,8.48,2.21,12.72,3.37v-20.5c8.86,2.42,17.69,4.98,26.49,7.68v44.62c-24.64-7.56-49.52-14.02-74.59-19.37,2.29-7.55,4.57-15.09,6.86-22.62V62.58c-2.28-8.54-4.57-17.08-6.86-25.61,14.07,3,28.09,6.36,42.04,10.06Z"/>
        <path class="cls-14" d="M666.93,72.14c-2.17,7.24-4.34,14.48-6.51,21.74,0,22.53,0,45.05,0,67.58,4.15,1.5,8.3,3.03,12.43,4.59,0-6.83,0-13.67,0-20.5,8.66,3.27,17.27,6.68,25.85,10.23v44.62c-24.01-9.95-48.35-18.78-72.95-26.51,2.24-7.33,4.49-14.66,6.73-21.97v-67.58c-2.24-8.76-4.48-17.51-6.73-26.26,13.81,4.34,27.54,9.03,41.18,14.07Z"/>
      </g>
      <g>
        <path class="cls-9" d="M99.63,57.61v36.74c-8.25-1.63-16.47-3.14-24.67-4.52-5.09,1.76-10.17,3.56-15.23,5.41v21.82c6.99-2.56,14.01-5.02,21.05-7.4v21c-7.04,2.37-14.06,4.84-21.05,7.4v24.77c2.22,7.23,4.44,14.46,6.66,21.71-13.82,4.93-27.56,10.22-41.18,15.86,2.19-8.95,4.39-17.88,6.58-26.81v-67.58c-2.2-7.15-4.39-14.29-6.58-21.42,24.49-10.14,49.32-19.13,74.41-26.97Z"/>
        <path class="cls-9" d="M179.81,117.85c0,2.52-.03,5.17-.07,7.97-.05,2.8-.3,5.59-.75,8.36-.45,2.78-1.19,5.48-2.24,8.11-1.04,2.63-2.61,5.05-4.7,7.26-2.58,2.76-5.56,4.74-8.93,5.96-3.37,1.22-6.59,2.21-9.66,2.95-6.38,1.56-12.75,3.19-19.11,4.89-1.87.5-3.84.98-5.91,1.44-2.07.46-4.11.73-6.12.81-2.01.08-3.93-.11-5.74-.57-1.82-.46-3.41-1.35-4.78-2.7-2.26-2.39-3.58-5.22-3.97-8.49-.39-3.27-.64-6.8-.73-10.6v-56.76c0-2.08.02-4.24.07-6.5.05-2.25.24-4.5.59-6.74.34-2.24.86-4.47,1.54-6.7.68-2.23,1.71-4.37,3.09-6.41,2.55-3.92,5.54-6.65,8.98-8.18,3.44-1.52,6.93-2.77,10.47-3.73,6.84-1.85,13.71-3.62,20.58-5.31,3.07-.75,5.74-1.28,8.02-1.6,2.28-.32,4.29-.43,6.02-.33,1.73.1,3.25.47,4.54,1.11,1.29.64,2.48,1.56,3.58,2.74,1.09,1.18,1.99,2.5,2.68,3.93.69,1.44,1.22,3.16,1.57,5.16.35,2,.6,4.3.75,6.9.15,2.59.22,5.59.22,8.97v48.06ZM135.54,71.34v67.58c5.17-1.38,10.36-2.71,15.55-3.99,0-22.53,0-45.05,0-67.58-5.19,1.28-10.38,2.61-15.55,3.99Z"/>
        <path class="cls-9" d="M264.24,104.24c0,2.52-.03,5.17-.08,7.96-.05,2.79-.3,5.56-.75,8.29-.45,2.73-1.21,5.36-2.27,7.89-1.06,2.53-2.64,4.79-4.75,6.79-2.62,2.5-5.63,4.19-9.05,5.08-3.42.89-6.68,1.55-9.79,2-6.48.92-12.94,1.92-19.4,2.99-1.9.32-3.9.6-6,.85-2.1.26-4.18.32-6.22.2-2.05-.12-4-.5-5.84-1.14-1.85-.64-3.47-1.69-4.87-3.18-2.3-2.62-3.64-5.58-4.04-8.89-.4-3.31-.65-6.87-.75-10.68,0-18.92,0-37.84,0-56.76,0-2.08.02-4.24.07-6.49.05-2.25.25-4.48.6-6.68.35-2.2.87-4.38,1.57-6.54.7-2.16,1.74-4.2,3.14-6.11,2.59-3.67,5.64-6.1,9.14-7.28,3.5-1.18,7.05-2.08,10.65-2.68,6.96-1.17,13.92-2.26,20.9-3.27,3.11-.45,5.82-.71,8.13-.8,2.31-.09,4.35,0,6.11.27,1.76.27,3.29.79,4.6,1.56,1.31.77,2.51,1.8,3.62,3.09,1.11,1.29,2.01,2.69,2.72,4.2.7,1.51,1.23,3.28,1.59,5.31.35,2.04.6,4.36.76,6.97.15,2.61.23,5.61.23,9,0,16.02,0,32.04,0,48.06ZM219.34,53.35v67.58c5.26-.86,10.52-1.68,15.79-2.45,0-22.53,0-45.05,0-67.58-5.27.77-10.53,1.58-15.79,2.45Z"/>
        <path class="cls-9" d="M362.72,60.25c-6.88-6.18-13.76-12.29-20.64-18.31-3.59.08-7.18.18-10.77.31v67.58c2.33,7.96,4.65,15.92,6.98,23.9-14.36.39-28.72,1.12-43.05,2.21,2.32-8.21,4.64-16.42,6.97-24.62V43.75c-3.59.24-7.17.51-10.75.8-6.86,6.73-13.72,13.54-20.57,20.43V22.33c30.53-3.18,61.18-4.75,91.83-4.72v42.65Z"/>
        <path class="cls-9" d="M419.29,19.47c1.72.11,3.58.27,5.6.47,2.02.2,4.04.52,6.06.95,2.02.43,3.96,1.06,5.83,1.87,1.86.82,3.56,1.95,5.07,3.4,1.51,1.45,2.7,3.12,3.55,5.01.86,1.89,1.49,3.86,1.89,5.92.4,2.06.63,4.16.68,6.3.05,2.14.07,4.14.08,5.99,0,1.53-.03,3.2-.08,5-.05,1.8-.18,3.62-.38,5.46-.2,1.84-.53,3.61-.98,5.32-.45,1.71-1.13,3.23-2.04,4.56-.91,1.56-2.02,2.74-3.33,3.55-1.31.81-2.57,1.44-3.78,1.88-1.21.44-2.34.73-3.4.86-1.06.13-1.79.24-2.19.31,2.42.96,4.64,2.02,6.66,3.18,2.02,1.16,3.88,2.92,5.6,5.26,1.51,2.11,2.54,4.45,3.1,7.02.55,2.57.83,6.31.83,11.24,0,.11,0,.79,0,2.05,0,1.26-.03,2.76-.08,4.5-.05,1.75-.13,3.6-.23,5.55-.1,1.96-.3,3.74-.61,5.35-.6,4.21-1.79,7.37-3.55,9.5-1.77,2.13-3.91,3.63-6.43,4.51-2.52.88-5.32,1.28-8.4,1.21-3.08-.07-6.19-.21-9.31-.41-17.73-1.16-35.48-1.78-53.23-1.87,2.33-8.03,4.65-16.04,6.98-24.05V41.79c-2.33-8.07-4.65-16.13-6.98-24.17,17.7.09,35.41.71,53.08,1.86ZM402.16,64.45c5.61.26,11.22.57,16.82.93v-21.82c-5.61-.36-11.21-.67-16.82-.93,0,7.27,0,14.54,0,21.82ZM402.16,110.22c5.61.26,11.22.57,16.82.93v-24.44c-5.61-.36-11.21-.67-16.82-.93,0,8.15,0,16.29,0,24.44Z"/>
        <path class="cls-9" d="M521.23,32.13c4.94,31.47,9.88,62.99,14.81,94.55,2.39,8.52,4.78,17.05,7.17,25.59-10.8-2.27-21.63-4.34-32.48-6.2-1.25-9.62-2.5-19.24-3.75-28.85-5.96-1-11.92-1.93-17.89-2.8-1.2,9.23-2.41,18.46-3.61,27.69-10.94-1.55-21.91-2.9-32.89-4.03,2.62-7.77,5.24-15.52,7.86-23.26,4.88-30.02,9.76-59.99,14.64-89.92,15.43,2,30.82,4.41,46.15,7.23ZM491.34,94.75c4.46.66,8.92,1.36,13.38,2.09-2.2-16.55-4.41-33.09-6.61-49.62-2.26,15.83-4.51,31.67-6.77,47.52Z"/>
        <path class="cls-9" d="M587.64,47.03c-2.22,7.45-4.44,14.91-6.66,22.37v67.58c4.25,1.09,8.48,2.21,12.72,3.37v-20.5c8.86,2.42,17.69,4.98,26.49,7.68v44.62c-24.64-7.56-49.52-14.02-74.59-19.37,2.29-7.55,4.57-15.09,6.86-22.62V62.58c-2.28-8.54-4.57-17.08-6.86-25.61,14.07,3,28.09,6.36,42.04,10.06Z"/>
        <path class="cls-9" d="M666.93,72.14c-2.17,7.24-4.34,14.48-6.51,21.74,0,22.53,0,45.05,0,67.58,4.15,1.5,8.3,3.03,12.43,4.59,0-6.83,0-13.67,0-20.5,8.66,3.27,17.27,6.68,25.85,10.23v44.62c-24.01-9.95-48.35-18.78-72.95-26.51,2.24-7.33,4.49-14.66,6.73-21.97v-67.58c-2.24-8.76-4.48-17.51-6.73-26.26,13.81,4.34,27.54,9.03,41.18,14.07Z"/>
      </g>
    </g>
    <g id="SCHLAND">
      <g>
        <path d="M183.8,198.91c-6.57-.96-13.12-1.85-19.66-2.66-4.09.95-8.18,1.92-12.27,2.92v14.96c4.92-1.21,9.85-2.38,14.79-3.5.61-.14,1.26-.29,1.95-.44.69-.16,1.38-.27,2.07-.35.46-.1,1.22-.21,2.3-.33,1.07-.12,2.26-.11,3.57.03,1.3.14,2.65.5,4.03,1.05,1.38.56,2.53,1.56,3.46,2.99,1.07,1.48,1.71,3.13,1.9,4.95.19,1.82.29,3.69.29,5.63v13.22c0,1.39-.04,2.81-.12,4.26-.08,1.45-.31,2.9-.69,4.38-.85,3.04-2.15,5.47-3.92,7.31-1.77,1.84-3.61,3.26-5.52,4.25-1.92,1-3.7,1.68-5.35,2.04-1.65.37-2.81.63-3.5.79-12.1,2.75-24.15,5.76-36.15,9.02v-25.06c6.95.78,13.92,1.64,20.9,2.59,4.08-1,8.17-1.98,12.27-2.92v-16.47c-5.39,1.25-10.78,2.54-16.16,3.89-.61.15-1.18.28-1.72.37-.53.1-1.11.22-1.71.38-.46.12-1.14.23-2.06.35-.91.12-1.92.11-3.03-.03-1.1-.14-2.23-.42-3.37-.85-1.14-.43-2.21-1.17-3.19-2.22-1.37-1.49-2.18-3.16-2.45-5.02-.27-1.86-.48-3.89-.63-6.09v-13.57c.15-2.36.4-4.56.74-6.58.34-2.03,1.27-4.13,2.79-6.32,1.98-2.85,4.26-4.87,6.85-6.05,2.59-1.18,5.22-2.1,7.89-2.77,11.86-2.97,23.76-5.7,35.71-8.17v24.01Z"/>
        <path d="M247.84,190.53c-6.32.83-12.63,1.73-18.93,2.69,0-3.13,0-6.26,0-9.4-4.06.62-8.12,1.27-12.17,1.95,0,15.93,0,31.86,0,47.79,4.05-.68,8.11-1.33,12.17-1.95,0-4.37,0-8.74,0-13.11,6.61-1.01,13.24-1.95,19.86-2.82v30.16c-11.24,1.46-22.46,3.14-33.66,5.04-.85.14-1.68.29-2.49.43-.81.14-1.64.25-2.49.32-3.78.43-6.65.23-8.61-.65-1.96-.87-3.45-1.94-4.45-3.22-.62-.81-1.08-1.63-1.39-2.46-.31-.83-.58-1.76-.81-2.8-.15-.82-.25-1.67-.29-2.55-.04-.88-.06-2.21-.06-3.99,0-14.5,0-29,0-43.5,0-2.71.17-5.31.52-7.82.35-2.5,1.48-5.02,3.41-7.55,1.08-1.44,2.29-2.64,3.64-3.58,1.35-.95,2.77-1.71,4.28-2.29,1.5-.58,3.03-1.04,4.57-1.39,1.54-.35,3.09-.65,4.63-.91,10.73-1.81,21.49-3.43,32.26-4.84v26.45Z"/>
        <path d="M280.1,160.45c0,10.59,0,21.19,0,31.78,3.85-.36,7.7-.7,11.55-1.01v-31.78c9.3-.75,18.61-1.35,27.93-1.81-1.79,5.77-3.59,11.55-5.38,17.33v47.79c1.79,5.59,3.59,11.18,5.38,16.77-9.32.45-18.63,1.06-27.93,1.81v-32.94c-3.85.31-7.7.65-11.55,1.01,0,10.98,0,21.96,0,32.94-9.25.87-18.5,1.89-27.73,3.05,1.78-5.91,3.57-11.81,5.35-17.71v-47.79c-1.79-5.47-3.57-10.93-5.35-16.39,9.23-1.16,18.48-2.18,27.73-3.05Z"/>
        <path d="M356.09,156.61c-1.76,5.7-3.51,11.4-5.27,17.11v47.79c3.36-.04,6.71-.07,10.07-.08v-14.5c7.02-.01,14.05.06,21.07.21,0,10.52,0,21.03,0,31.55-19.66-.43-39.33-.21-58.98.68,1.79-5.76,3.59-11.52,5.38-17.28v-47.79c-1.79-5.61-3.59-11.22-5.38-16.83,11.03-.5,22.07-.78,33.11-.87Z"/>
        <path d="M437.95,159.81c3.85,21.95,7.7,43.92,11.55,65.91,1.87,5.87,3.73,11.74,5.6,17.62-8.43-.89-16.87-1.66-25.32-2.3-.97-6.73-1.95-13.45-2.92-20.17-4.63-.34-9.27-.64-13.91-.91-.94,6.6-1.87,13.2-2.81,19.8-8.5-.46-17-.79-25.5-1.01,2.03-5.63,4.06-11.26,6.08-16.88,3.78-21.49,7.57-42.96,11.35-64.41,11.97.54,23.93,1.32,35.87,2.34ZM414.7,205.92c3.47.21,6.93.43,10.4.68-1.71-11.57-3.43-23.13-5.14-34.69-1.75,11.33-3.51,22.67-5.26,34.01Z"/>
        <path d="M525.56,188.82v47.79c1.77,6.02,3.54,12.04,5.31,18.07-8.66-1.68-17.33-3.23-26.02-4.65-7.73-17.12-15.46-34.13-23.21-51.04.27,15.89.54,31.78.81,47.67-8.45-1.16-16.9-2.19-25.37-3.11,1.79-5.49,3.57-10.98,5.36-16.46v-47.79c-1.79-5.89-3.57-11.77-5.36-17.65,8.78.95,17.55,2.02,26.3,3.23,7.75,17.04,15.48,34.18,23.21,51.43-.23-16.01-.46-32.02-.7-48.02,8.34,1.37,16.67,2.87,24.98,4.48-1.77,5.34-3.54,10.69-5.31,16.04Z"/>
        <path d="M575.36,182.63c2.44.61,4.99,1.39,7.66,2.35,2.66.96,5.06,2.62,7.19,4.96,1.21,1.41,2.18,2.93,2.91,4.55.72,1.63,1.23,3.27,1.54,4.94.3,1.67.49,3.32.57,4.97.07,1.64.11,3.24.11,4.79v38.28c0,2.78-.17,5.68-.51,8.68-.34,3-1.35,5.43-3.02,7.3-.99,1.05-2.11,1.75-3.37,2.12-1.25.36-2.57.54-3.94.53-1.37,0-2.8-.16-4.28-.46-1.49-.3-2.95-.63-4.4-.99-13.81-3.44-27.68-6.54-41.6-9.3,1.73-5.34,3.46-10.68,5.19-16.01v-47.79c-1.73-6.04-3.46-12.07-5.19-18.1,13.77,2.73,27.48,5.79,41.14,9.19ZM561.49,196.36v47.79c3.98.92,7.95,1.87,11.92,2.85v-47.79c-3.97-.98-7.94-1.93-11.92-2.85Z"/>
      </g>
      <g>
        <path class="cls-12" d="M183.8,198.91c-6.57-.96-13.12-1.85-19.66-2.66-4.09.95-8.18,1.92-12.27,2.92v14.96c4.92-1.21,9.85-2.38,14.79-3.5.61-.14,1.26-.29,1.95-.44.69-.16,1.38-.27,2.07-.35.46-.1,1.22-.21,2.3-.33,1.07-.12,2.26-.11,3.57.03,1.3.14,2.65.5,4.03,1.05,1.38.56,2.53,1.56,3.46,2.99,1.07,1.48,1.71,3.13,1.9,4.95.19,1.82.29,3.69.29,5.63v13.22c0,1.39-.04,2.81-.12,4.26-.08,1.45-.31,2.9-.69,4.38-.85,3.04-2.15,5.47-3.92,7.31-1.77,1.84-3.61,3.26-5.52,4.25-1.92,1-3.7,1.68-5.35,2.04-1.65.37-2.81.63-3.5.79-12.1,2.75-24.15,5.76-36.15,9.02v-25.06c6.95.78,13.92,1.64,20.9,2.59,4.08-1,8.17-1.98,12.27-2.92v-16.47c-5.39,1.25-10.78,2.54-16.16,3.89-.61.15-1.18.28-1.72.37-.53.1-1.11.22-1.71.38-.46.12-1.14.23-2.06.35-.91.12-1.92.11-3.03-.03-1.1-.14-2.23-.42-3.37-.85-1.14-.43-2.21-1.17-3.19-2.22-1.37-1.49-2.18-3.16-2.45-5.02-.27-1.86-.48-3.89-.63-6.09v-13.57c.15-2.36.4-4.56.74-6.58.34-2.03,1.27-4.13,2.79-6.32,1.98-2.85,4.26-4.87,6.85-6.05,2.59-1.18,5.22-2.1,7.89-2.77,11.86-2.97,23.76-5.7,35.71-8.17v24.01Z"/>
        <path class="cls-12" d="M247.84,190.53c-6.32.83-12.63,1.73-18.93,2.69,0-3.13,0-6.26,0-9.4-4.06.62-8.12,1.27-12.17,1.95,0,15.93,0,31.86,0,47.79,4.05-.68,8.11-1.33,12.17-1.95,0-4.37,0-8.74,0-13.11,6.61-1.01,13.24-1.95,19.86-2.82v30.16c-11.24,1.46-22.46,3.14-33.66,5.04-.85.14-1.68.29-2.49.43-.81.14-1.64.25-2.49.32-3.78.43-6.65.23-8.61-.65-1.96-.87-3.45-1.94-4.45-3.22-.62-.81-1.08-1.63-1.39-2.46-.31-.83-.58-1.76-.81-2.8-.15-.82-.25-1.67-.29-2.55-.04-.88-.06-2.21-.06-3.99,0-14.5,0-29,0-43.5,0-2.71.17-5.31.52-7.82.35-2.5,1.48-5.02,3.41-7.55,1.08-1.44,2.29-2.64,3.64-3.58,1.35-.95,2.77-1.71,4.28-2.29,1.5-.58,3.03-1.04,4.57-1.39,1.54-.35,3.09-.65,4.63-.91,10.73-1.81,21.49-3.43,32.26-4.84v26.45Z"/>
        <path class="cls-12" d="M280.1,160.45c0,10.59,0,21.19,0,31.78,3.85-.36,7.7-.7,11.55-1.01v-31.78c9.3-.75,18.61-1.35,27.93-1.81-1.79,5.77-3.59,11.55-5.38,17.33v47.79c1.79,5.59,3.59,11.18,5.38,16.77-9.32.45-18.63,1.06-27.93,1.81v-32.94c-3.85.31-7.7.65-11.55,1.01,0,10.98,0,21.96,0,32.94-9.25.87-18.5,1.89-27.73,3.05,1.78-5.91,3.57-11.81,5.35-17.71v-47.79c-1.79-5.47-3.57-10.93-5.35-16.39,9.23-1.16,18.48-2.18,27.73-3.05Z"/>
        <path class="cls-12" d="M356.09,156.61c-1.76,5.7-3.51,11.4-5.27,17.11v47.79c3.36-.04,6.71-.07,10.07-.08v-14.5c7.02-.01,14.05.06,21.07.21,0,10.52,0,21.03,0,31.55-19.66-.43-39.33-.21-58.98.68,1.79-5.76,3.59-11.52,5.38-17.28v-47.79c-1.79-5.61-3.59-11.22-5.38-16.83,11.03-.5,22.07-.78,33.11-.87Z"/>
        <path class="cls-12" d="M437.95,159.81c3.85,21.95,7.7,43.92,11.55,65.91,1.87,5.87,3.73,11.74,5.6,17.62-8.43-.89-16.87-1.66-25.32-2.3-.97-6.73-1.95-13.45-2.92-20.17-4.63-.34-9.27-.64-13.91-.91-.94,6.6-1.87,13.2-2.81,19.8-8.5-.46-17-.79-25.5-1.01,2.03-5.63,4.06-11.26,6.08-16.88,3.78-21.49,7.57-42.96,11.35-64.41,11.97.54,23.93,1.32,35.87,2.34ZM414.7,205.92c3.47.21,6.93.43,10.4.68-1.71-11.57-3.43-23.13-5.14-34.69-1.75,11.33-3.51,22.67-5.26,34.01Z"/>
        <path class="cls-12" d="M525.56,188.82v47.79c1.77,6.02,3.54,12.04,5.31,18.07-8.66-1.68-17.33-3.23-26.02-4.65-7.73-17.12-15.46-34.13-23.21-51.04.27,15.89.54,31.78.81,47.67-8.45-1.16-16.9-2.19-25.37-3.11,1.79-5.49,3.57-10.98,5.36-16.46v-47.79c-1.79-5.89-3.57-11.77-5.36-17.65,8.78.95,17.55,2.02,26.3,3.23,7.75,17.04,15.48,34.18,23.21,51.43-.23-16.01-.46-32.02-.7-48.02,8.34,1.37,16.67,2.87,24.98,4.48-1.77,5.34-3.54,10.69-5.31,16.04Z"/>
        <path class="cls-12" d="M575.36,182.63c2.44.61,4.99,1.39,7.66,2.35,2.66.96,5.06,2.62,7.19,4.96,1.21,1.41,2.18,2.93,2.91,4.55.72,1.63,1.23,3.27,1.54,4.94.3,1.67.49,3.32.57,4.97.07,1.64.11,3.24.11,4.79v38.28c0,2.78-.17,5.68-.51,8.68-.34,3-1.35,5.43-3.02,7.3-.99,1.05-2.11,1.75-3.37,2.12-1.25.36-2.57.54-3.94.53-1.37,0-2.8-.16-4.28-.46-1.49-.3-2.95-.63-4.4-.99-13.81-3.44-27.68-6.54-41.6-9.3,1.73-5.34,3.46-10.68,5.19-16.01v-47.79c-1.73-6.04-3.46-12.07-5.19-18.1,13.77,2.73,27.48,5.79,41.14,9.19ZM561.49,196.36v47.79c3.98.92,7.95,1.87,11.92,2.85v-47.79c-3.97-.98-7.94-1.93-11.92-2.85Z"/>
      </g>
      <g>
        <path class="cls-15" d="M183.8,198.91c-6.57-.96-13.12-1.85-19.66-2.66-4.09.95-8.18,1.92-12.27,2.92v14.96c4.92-1.21,9.85-2.38,14.79-3.5.61-.14,1.26-.29,1.95-.44.69-.16,1.38-.27,2.07-.35.46-.1,1.22-.21,2.3-.33,1.07-.12,2.26-.11,3.57.03,1.3.14,2.65.5,4.03,1.05,1.38.56,2.53,1.56,3.46,2.99,1.07,1.48,1.71,3.13,1.9,4.95.19,1.82.29,3.69.29,5.63v13.22c0,1.39-.04,2.81-.12,4.26-.08,1.45-.31,2.9-.69,4.38-.85,3.04-2.15,5.47-3.92,7.31-1.77,1.84-3.61,3.26-5.52,4.25-1.92,1-3.7,1.68-5.35,2.04-1.65.37-2.81.63-3.5.79-12.1,2.75-24.15,5.76-36.15,9.02v-25.06c6.95.78,13.92,1.64,20.9,2.59,4.08-1,8.17-1.98,12.27-2.92v-16.47c-5.39,1.25-10.78,2.54-16.16,3.89-.61.15-1.18.28-1.72.37-.53.1-1.11.22-1.71.38-.46.12-1.14.23-2.06.35-.91.12-1.92.11-3.03-.03-1.1-.14-2.23-.42-3.37-.85-1.14-.43-2.21-1.17-3.19-2.22-1.37-1.49-2.18-3.16-2.45-5.02-.27-1.86-.48-3.89-.63-6.09v-13.57c.15-2.36.4-4.56.74-6.58.34-2.03,1.27-4.13,2.79-6.32,1.98-2.85,4.26-4.87,6.85-6.05,2.59-1.18,5.22-2.1,7.89-2.77,11.86-2.97,23.76-5.7,35.71-8.17v24.01Z"/>
        <path class="cls-15" d="M247.84,190.53c-6.32.83-12.63,1.73-18.93,2.69,0-3.13,0-6.26,0-9.4-4.06.62-8.12,1.27-12.17,1.95,0,15.93,0,31.86,0,47.79,4.05-.68,8.11-1.33,12.17-1.95,0-4.37,0-8.74,0-13.11,6.61-1.01,13.24-1.95,19.86-2.82v30.16c-11.24,1.46-22.46,3.14-33.66,5.04-.85.14-1.68.29-2.49.43-.81.14-1.64.25-2.49.32-3.78.43-6.65.23-8.61-.65-1.96-.87-3.45-1.94-4.45-3.22-.62-.81-1.08-1.63-1.39-2.46-.31-.83-.58-1.76-.81-2.8-.15-.82-.25-1.67-.29-2.55-.04-.88-.06-2.21-.06-3.99,0-14.5,0-29,0-43.5,0-2.71.17-5.31.52-7.82.35-2.5,1.48-5.02,3.41-7.55,1.08-1.44,2.29-2.64,3.64-3.58,1.35-.95,2.77-1.71,4.28-2.29,1.5-.58,3.03-1.04,4.57-1.39,1.54-.35,3.09-.65,4.63-.91,10.73-1.81,21.49-3.43,32.26-4.84v26.45Z"/>
        <path class="cls-15" d="M280.1,160.45c0,10.59,0,21.19,0,31.78,3.85-.36,7.7-.7,11.55-1.01v-31.78c9.3-.75,18.61-1.35,27.93-1.81-1.79,5.77-3.59,11.55-5.38,17.33v47.79c1.79,5.59,3.59,11.18,5.38,16.77-9.32.45-18.63,1.06-27.93,1.81v-32.94c-3.85.31-7.7.65-11.55,1.01,0,10.98,0,21.96,0,32.94-9.25.87-18.5,1.89-27.73,3.05,1.78-5.91,3.57-11.81,5.35-17.71v-47.79c-1.79-5.47-3.57-10.93-5.35-16.39,9.23-1.16,18.48-2.18,27.73-3.05Z"/>
        <path class="cls-15" d="M356.09,156.61c-1.76,5.7-3.51,11.4-5.27,17.11v47.79c3.36-.04,6.71-.07,10.07-.08v-14.5c7.02-.01,14.05.06,21.07.21,0,10.52,0,21.03,0,31.55-19.66-.43-39.33-.21-58.98.68,1.79-5.76,3.59-11.52,5.38-17.28v-47.79c-1.79-5.61-3.59-11.22-5.38-16.83,11.03-.5,22.07-.78,33.11-.87Z"/>
        <path class="cls-15" d="M437.95,159.81c3.85,21.95,7.7,43.92,11.55,65.91,1.87,5.87,3.73,11.74,5.6,17.62-8.43-.89-16.87-1.66-25.32-2.3-.97-6.73-1.95-13.45-2.92-20.17-4.63-.34-9.27-.64-13.91-.91-.94,6.6-1.87,13.2-2.81,19.8-8.5-.46-17-.79-25.5-1.01,2.03-5.63,4.06-11.26,6.08-16.88,3.78-21.49,7.57-42.96,11.35-64.41,11.97.54,23.93,1.32,35.87,2.34ZM414.7,205.92c3.47.21,6.93.43,10.4.68-1.71-11.57-3.43-23.13-5.14-34.69-1.75,11.33-3.51,22.67-5.26,34.01Z"/>
        <path class="cls-15" d="M525.56,188.82v47.79c1.77,6.02,3.54,12.04,5.31,18.07-8.66-1.68-17.33-3.23-26.02-4.65-7.73-17.12-15.46-34.13-23.21-51.04.27,15.89.54,31.78.81,47.67-8.45-1.16-16.9-2.19-25.37-3.11,1.79-5.49,3.57-10.98,5.36-16.46v-47.79c-1.79-5.89-3.57-11.77-5.36-17.65,8.78.95,17.55,2.02,26.3,3.23,7.75,17.04,15.48,34.18,23.21,51.43-.23-16.01-.46-32.02-.7-48.02,8.34,1.37,16.67,2.87,24.98,4.48-1.77,5.34-3.54,10.69-5.31,16.04Z"/>
        <path class="cls-15" d="M575.36,182.63c2.44.61,4.99,1.39,7.66,2.35,2.66.96,5.06,2.62,7.19,4.96,1.21,1.41,2.18,2.93,2.91,4.55.72,1.63,1.23,3.27,1.54,4.94.3,1.67.49,3.32.57,4.97.07,1.64.11,3.24.11,4.79v38.28c0,2.78-.17,5.68-.51,8.68-.34,3-1.35,5.43-3.02,7.3-.99,1.05-2.11,1.75-3.37,2.12-1.25.36-2.57.54-3.94.53-1.37,0-2.8-.16-4.28-.46-1.49-.3-2.95-.63-4.4-.99-13.81-3.44-27.68-6.54-41.6-9.3,1.73-5.34,3.46-10.68,5.19-16.01v-47.79c-1.73-6.04-3.46-12.07-5.19-18.1,13.77,2.73,27.48,5.79,41.14,9.19ZM561.49,196.36v47.79c3.98.92,7.95,1.87,11.92,2.85v-47.79c-3.97-.98-7.94-1.93-11.92-2.85Z"/>
      </g>
      <g>
        <path class="cls-9" d="M183.8,198.91c-6.57-.96-13.12-1.85-19.66-2.66-4.09.95-8.18,1.92-12.27,2.92v14.96c4.92-1.21,9.85-2.38,14.79-3.5.61-.14,1.26-.29,1.95-.44.69-.16,1.38-.27,2.07-.35.46-.1,1.22-.21,2.3-.33,1.07-.12,2.26-.11,3.57.03,1.3.14,2.65.5,4.03,1.05,1.38.56,2.53,1.56,3.46,2.99,1.07,1.48,1.71,3.13,1.9,4.95.19,1.82.29,3.69.29,5.63v13.22c0,1.39-.04,2.81-.12,4.26-.08,1.45-.31,2.9-.69,4.38-.85,3.04-2.15,5.47-3.92,7.31-1.77,1.84-3.61,3.26-5.52,4.25-1.92,1-3.7,1.68-5.35,2.04-1.65.37-2.81.63-3.5.79-12.1,2.75-24.15,5.76-36.15,9.02v-25.06c6.95.78,13.92,1.64,20.9,2.59,4.08-1,8.17-1.98,12.27-2.92v-16.47c-5.39,1.25-10.78,2.54-16.16,3.89-.61.15-1.18.28-1.72.37-.53.1-1.11.22-1.71.38-.46.12-1.14.23-2.06.35-.91.12-1.92.11-3.03-.03-1.1-.14-2.23-.42-3.37-.85-1.14-.43-2.21-1.17-3.19-2.22-1.37-1.49-2.18-3.16-2.45-5.02-.27-1.86-.48-3.89-.63-6.09v-13.57c.15-2.36.4-4.56.74-6.58.34-2.03,1.27-4.13,2.79-6.32,1.98-2.85,4.26-4.87,6.85-6.05,2.59-1.18,5.22-2.1,7.89-2.77,11.86-2.97,23.76-5.7,35.71-8.17v24.01Z"/>
        <path class="cls-9" d="M247.84,190.53c-6.32.83-12.63,1.73-18.93,2.69,0-3.13,0-6.26,0-9.4-4.06.62-8.12,1.27-12.17,1.95,0,15.93,0,31.86,0,47.79,4.05-.68,8.11-1.33,12.17-1.95,0-4.37,0-8.74,0-13.11,6.61-1.01,13.24-1.95,19.86-2.82v30.16c-11.24,1.46-22.46,3.14-33.66,5.04-.85.14-1.68.29-2.49.43-.81.14-1.64.25-2.49.32-3.78.43-6.65.23-8.61-.65-1.96-.87-3.45-1.94-4.45-3.22-.62-.81-1.08-1.63-1.39-2.46-.31-.83-.58-1.76-.81-2.8-.15-.82-.25-1.67-.29-2.55-.04-.88-.06-2.21-.06-3.99,0-14.5,0-29,0-43.5,0-2.71.17-5.31.52-7.82.35-2.5,1.48-5.02,3.41-7.55,1.08-1.44,2.29-2.64,3.64-3.58,1.35-.95,2.77-1.71,4.28-2.29,1.5-.58,3.03-1.04,4.57-1.39,1.54-.35,3.09-.65,4.63-.91,10.73-1.81,21.49-3.43,32.26-4.84v26.45Z"/>
        <path class="cls-9" d="M280.1,160.45c0,10.59,0,21.19,0,31.78,3.85-.36,7.7-.7,11.55-1.01v-31.78c9.3-.75,18.61-1.35,27.93-1.81-1.79,5.77-3.59,11.55-5.38,17.33v47.79c1.79,5.59,3.59,11.18,5.38,16.77-9.32.45-18.63,1.06-27.93,1.81v-32.94c-3.85.31-7.7.65-11.55,1.01,0,10.98,0,21.96,0,32.94-9.25.87-18.5,1.89-27.73,3.05,1.78-5.91,3.57-11.81,5.35-17.71v-47.79c-1.79-5.47-3.57-10.93-5.35-16.39,9.23-1.16,18.48-2.18,27.73-3.05Z"/>
        <path class="cls-9" d="M356.09,156.61c-1.76,5.7-3.51,11.4-5.27,17.11v47.79c3.36-.04,6.71-.07,10.07-.08v-14.5c7.02-.01,14.05.06,21.07.21,0,10.52,0,21.03,0,31.55-19.66-.43-39.33-.21-58.98.68,1.79-5.76,3.59-11.52,5.38-17.28v-47.79c-1.79-5.61-3.59-11.22-5.38-16.83,11.03-.5,22.07-.78,33.11-.87Z"/>
        <path class="cls-9" d="M437.95,159.81c3.85,21.95,7.7,43.92,11.55,65.91,1.87,5.87,3.73,11.74,5.6,17.62-8.43-.89-16.87-1.66-25.32-2.3-.97-6.73-1.95-13.45-2.92-20.17-4.63-.34-9.27-.64-13.91-.91-.94,6.6-1.87,13.2-2.81,19.8-8.5-.46-17-.79-25.5-1.01,2.03-5.63,4.06-11.26,6.08-16.88,3.78-21.49,7.57-42.96,11.35-64.41,11.97.54,23.93,1.32,35.87,2.34ZM414.7,205.92c3.47.21,6.93.43,10.4.68-1.71-11.57-3.43-23.13-5.14-34.69-1.75,11.33-3.51,22.67-5.26,34.01Z"/>
        <path class="cls-9" d="M525.56,188.82v47.79c1.77,6.02,3.54,12.04,5.31,18.07-8.66-1.68-17.33-3.23-26.02-4.65-7.73-17.12-15.46-34.13-23.21-51.04.27,15.89.54,31.78.81,47.67-8.45-1.16-16.9-2.19-25.37-3.11,1.79-5.49,3.57-10.98,5.36-16.46v-47.79c-1.79-5.89-3.57-11.77-5.36-17.65,8.78.95,17.55,2.02,26.3,3.23,7.75,17.04,15.48,34.18,23.21,51.43-.23-16.01-.46-32.02-.7-48.02,8.34,1.37,16.67,2.87,24.98,4.48-1.77,5.34-3.54,10.69-5.31,16.04Z"/>
        <path class="cls-9" d="M575.36,182.63c2.44.61,4.99,1.39,7.66,2.35,2.66.96,5.06,2.62,7.19,4.96,1.21,1.41,2.18,2.93,2.91,4.55.72,1.63,1.23,3.27,1.54,4.94.3,1.67.49,3.32.57,4.97.07,1.64.11,3.24.11,4.79v38.28c0,2.78-.17,5.68-.51,8.68-.34,3-1.35,5.43-3.02,7.3-.99,1.05-2.11,1.75-3.37,2.12-1.25.36-2.57.54-3.94.53-1.37,0-2.8-.16-4.28-.46-1.49-.3-2.95-.63-4.4-.99-13.81-3.44-27.68-6.54-41.6-9.3,1.73-5.34,3.46-10.68,5.19-16.01v-47.79c-1.73-6.04-3.46-12.07-5.19-18.1,13.77,2.73,27.48,5.79,41.14,9.19ZM561.49,196.36v47.79c3.98.92,7.95,1.87,11.92,2.85v-47.79c-3.97-.98-7.94-1.93-11.92-2.85Z"/>
      </g>
    </g>
  </g>
  <g id="HELME_BUNT_Kopie">
    <g id="HELM_RECHTS_CHARGERS">
      <path class="cls-6" d="M541.77,610.26c-12,0-23.77-2.7-32.93-6.78-6.49-2.89-13.45-6.49-21.9-11.32-8.68-4.96-17.76-10.56-27.78-17.12-3.66-2.4-8-5.26-12.36-8.31l-.08-.06c-3.63-2.54-5.23-7.13-3.95-11.38h0c.15-.58.31-2.42.19-4.67-.08-1.38-.49-3.31-.83-4.79-11.27-18.2-17.23-39.26-17.23-60.98,0-65.58,53.87-120.63,120.09-122.71,17.23-.54,33.87,2.47,49.48,8.94,15.1,6.26,28.45,15.43,39.67,27.24,16.98,17.88,27.59,40.3,30.67,64.82h0c.8,6.36-4.28,11.92-10.69,11.7h0c-12.4-.43-23.72.1-33.64,1.58-2.7.4-5.29.88-7.71,1.42-7.3,1.63-17.96,4.32-26.14,8.77-4.98,2.71-8.21,5.65-9.89,9.01-2.73,5.47-1.9,10.6,2.97,18.3,6.71,10.6,15.83,26.18,17.53,39.14.69,5.27.62,10.54-.22,15.65-2.08,12.59-9.75,24.5-20.53,31.85-10.15,6.92-22.56,9.7-34.74,9.7Z"/>
      <path class="cls-5" d="M545.33,372.55c-60.75,1.91-110.01,52.2-110.01,112.3,0,19.59,2.92,30.06,9.18,43.29.6,1.28,2.57,4.04,5.13,7.19,12.91,13.43,60.75,42.62,68.17,46.58-29.03-9.88-53.91-23.62-64.38-29.99.03,4.05-.64,6.27-.64,6.27,0,0,35.02,24.5,60.3,35.77,16.99,7.57,41.68,8.82,57.56-2.01,8.35-5.69,14.48-14.96,16.12-24.94.63-3.86.76-8.11.17-12.6-1.46-11.06-10.48-26.19-16.01-34.92-5.53-8.73-8.73-18.04-3.49-28.52,5.24-10.48,18.34-17.75,43.07-23.28,15.58-3.48,33.12-3.62,43.97-3.24-6.73-53.52-53.04-93.66-109.16-91.89Z"/>
      <path class="cls-1" d="M683.77,591s-.97-7.44-10.66-13.77c-10.51-6.86-13.92-7.74-13.93-7.75l-.2-.05-.09-.03s-9.33-3.45-11.96-12.25c-1.48-4.94-2.19-12.46-2.51-17.16l-.63-4.37c-8.58-.66-12.15-.5-12.16-.5-1.75.06-3.22-1.31-3.29-3.06-.06-1.75,1.31-3.22,3.06-3.29.01,0,3.48-.15,11.45.41l-1.45-9.99c-1.44-.13-2.29-.21-2.31-.21h0c-.78-.08-1.54-.44-2.11-1.07l-20.07-22.69c-1.16-1.31-1.04-3.32.27-4.48,1.31-1.16,3.32-1.04,4.48.27l18.71,21.15-5.62-38.66c-.25-1.74.96-3.35,2.7-3.6,1.74-.25,3.35.96,3.6,2.7l5.92,40.73c8.86.89,23.48,2.54,30.68,4.34,10.63,2.66,17.64,5.34,17.66,5.35,1.64.62,2.47,2.45,1.86,4.1-.62,1.64-2.45,2.47-4.1,1.86-.02,0-6.65-2.55-16.96-5.12-6.43-1.61-19.44-3.12-28.2-4.01l1.44,9.89c1.61.15,3.33.32,5.18.52,16.58,1.79,39.85,10.78,39.92,10.8,1.64.63,2.47,2.46,1.84,4.11-.63,1.64-2.46,2.47-4.11,1.84-.06-.02-22.62-8.73-38.33-10.43-1.15-.12-2.25-.24-3.3-.34.03.64.08,1.67.16,2.94l2.38,16.36v.07c1.84,5.56,8.02,7.85,8.03,7.86h0c1.14.37,5.77,2.13,15.46,8.46,12.12,7.92,13.47,18.2,13.48,18.23l-6.3.87Z"/>
      <g>
        <path class="cls-8" d="M479.25,396.46c-9.54,7.4-17.86,16.26-24.63,26.22,28.88-14.65,78.02-14.73,132.48-.89-25.34-33.73-86.46-32.9-107.85-25.33Z"/>
        <path class="cls-3" d="M645.5,433.23c-17.31-37.1-55.66-62.08-100.18-60.68-17.03.54-33.16,4.88-47.56,12.17,67.02-9.97,113.47,18.75,125.03,49.72l22.71-1.21Z"/>
      </g>
      <path class="cls-6" d="M654.35,463.41l3.34,2.23s-19.93,6.69-26.18,13.53c-6.25,6.84-12.8,14.11-9.02,27.78,3.78,13.67,10.18,22.11,11.05,35.05.87,12.94-3.78,20.94-10.33,26.91-6.54,5.96-22.54,8.73-32,8.73-3.23,0-5.77-.22-7.73-.51,1.58-3.2,2.7-6.6,3.28-10.1.63-3.86.76-8.11.17-12.6-1.46-11.06-10.48-26.19-16.01-34.92-5.53-8.73-8.73-18.04-3.49-28.52,5.24-10.48,18.34-17.75,43.07-23.28,15.58-3.48,33.12-3.62,43.97-3.24-.04-.35-.1-.69-.14-1.04"/>
      <path class="cls-2" d="M631.97,428.95h-.01c-.05.01-.1.02-.15.04h0s0,0,0,0h0c-.05.01-.1.03-.15.04h0s0,0,0,0h0s-.09.03-.13.04h0s0,0,0,0h0s1.2-.54-.13.05c-1.33.59-3.64,2.18-2.25,6.98,1.38,4.8,3.27,12.29,3.93,14.54.65,2.25,2.69,8.58,2.69,8.58l2.54,4.07-1.38.95-2.4.22s0,1.96,1.82,1.67c1.82-.29,5.6-1.53,6.11-1.02.51.51,1.16,1.67.8,2.4-.36.73-6.54,2.84-6.54,2.84l.07,1.45s11.71-.51,14.69-.29c2.98.22,5.89.44,5.89.44,0,0,6.04-.87,6.98-3.27.01-.03.03-.07.04-.1h0s0-.02,0-.02l.03-.1h0s0-.01,0-.01l.02-.08h0s0-.03,0-.03h0s0-.02,0-.02h0s0-.04,0-.04h0s0-.02,0-.02v-.02s0-.01,0-.01h0s0-.02,0-.02h0s0-.02,0-.02h0s0-.02,0-.02h0s0-.04,0-.04h0s0-.02,0-.02h0s0-.02,0-.02h0s0-.02,0-.02v-.04s.01-.01.01-.01h0c.38-1.94-1.29-2.87-3.26-3.33-2.18-.51-3.05-3.05-3.05-4.44,0-1.38-.15-10.18-6.18-27.13,0,0-.29-1.16-2.55-2.04-2.12-.82-13.89-2.85-17.5-2.14"/>
      <path class="cls-5" d="M679.48,452.67c-.61-6.14-3.29-9.64-5.45-12.45-.34-.44-.68-.88-1.02-1.35-.71-.98-1.19-2.57-1.69-4.25-.41-1.36-.83-2.77-1.46-4.21-3.02-6.93-7.8-7.96-10.38-7.96-.27,0-.53.01-.81.03l-.75.06-6.5,1.88c-.63-.21-1.21-.35-1.61-.45-.22-.05-.43-.1-.64-.15-2.16-1.93-4.6-2.9-7.32-2.9-.83,0-1.67.1-2.49.29l-.59.14-1.58.66c-1.1-.09-2.23-.15-3.26-.15-2.28,0-3.94.29-5.38.93-.84.37-1.62.85-2.32,1.43l-.79.65-.59.84c-1.2,1.7-1.92,3.54-2.14,5.48-.36,3.16.79,7.33,3.51,15.49.3.89.54,1.63.69,2.11.83,2.71,4.09,12.21,4.22,12.61l.39,1.14,2.52,3.34-.56.94h1.26s.51.66.51.66l1.03,1.03,2.36,2.73,3.76-.56s-.25.04-.67.04c-1.91,0-3.69-1.01-4.65-2.62-.06-.26-.12-.72-.1-1.3l4.95-.04,2.02,8.98c15.7.62,25.84-1.43,25.84-1.43l2.8-5.58,2.37-2.36c2.47-2.46,5.13-7.52,4.52-13.69Z"/>
      <path class="cls-2" d="M589.94,518.72l-10.71-49.8-.17-.93-.08.25-.68.15c-1.06.24-2.12.48-3.19.72v.05s-1.18.23-1.18.23c-.69.13-1.4.32-2.07.51-1.74.49-3.45,1.09-5.11,1.8-4.58,1.95-9.03,4.82-12.05,8.84-.77,1.03-1.5,2.11-2.21,3.19l31.4,31.46.03-.03.84.89c.32.34.86.7,1.25.94,1.2.75,2.58,1.31,3.94,1.72M594.15,538.32l-1.71-7.96c-4.05-.59-8.08-1.82-11.62-3.88-1.24-.72-3.08-1.94-4.07-3.05l-30.07-30.13c-5.32,9.22-10.36,18.66-15.28,28.11,3.35,2.34,6.77,4.61,10.26,6.74,2.18,1.33,4.42,2.63,6.7,3.78,1.62.81,3.58,1.73,5.35,2.13,1.5.34,3.05.58,4.57.81,2.34.35,4.69.64,7.03.91,6.77.79,13.56,1.39,20.35,1.92,2.83.22,5.66.42,8.49.61ZM672.36,533.72c-3.54.02-7.08-.04-10.62-.12-4.84-.1-9.69-.26-14.53-.43-14.48-.52-28.98-1.19-43.46-2l1.68,7.82c8.58.47,17.17.81,25.76,1.04,12.29.32,24.6.42,36.89.1,1.66-.04,3.33-.02,4.99,0-.18-1.95-.39-3.89-.64-5.83l-.08-.58ZM672.05,588.05c1.04-12.22,1.98-24.48,1.67-36.76v-.41c-1.8.05-3.58.09-5.37.14-12.46.32-24.95.22-37.41-.1-7.71-.2-15.42-.5-23.13-.89l3.28,15.28v.03c.64,2.37,1.85,4.93,3.16,6.99,2.48,3.88,5.89,6.92,10.29,8.44,3.46,1.19,7.17,2.05,10.74,2.79,4.47.93,9,1.68,13.52,2.33.64.09,1.29.18,1.93.27,4.12.56,8.27,1.03,12.41,1.39,2.94.25,5.93.46,8.89.52ZM685.16,584.86c1.89-11.35,3.72-22.74,4.65-34.22l.03-.41c-.64.06-1.29.1-1.92.14-1.22.07-2.44.13-3.66.18.33,12.14-.49,24.25-1.49,36.35.36-.11.68-.22.88-.34.38-.67.9-1.25,1.52-1.7ZM683.67,540.04c2.23-.13,4.69-.38,6.76-1.01.04-1.98.05-3.95.03-5.93v-.54c-2.49.33-5,.56-7.51.73.29,2.24.53,4.49.72,6.74ZM700.04,526.82c.38,8.94.04,17.86-.78,26.77-1.11,11.95-3.07,23.81-5.05,35.65-.13.8-.43,1.56-.86,2.24-.04.09-.08.18-.13.27-.6,1.19-2.06,2.45-3.13,3.17-3.43,2.34-7.97,3.39-12.04,3.83-1.7.18-3.46.2-5.17.19-2.29-.02-4.58-.13-6.86-.28-5.58-.36-11.18-.97-16.72-1.72-.86-.12-1.71-.24-2.57-.36-4.74-.69-9.48-1.49-14.17-2.47-3.85-.81-7.82-1.74-11.54-3.02-6.63-2.28-11.86-6.76-15.66-12.59-2-3.07-3.81-6.85-4.78-10.42-.05-.17-.1-.34-.13-.51l-3.91-18.16c-3.9-.25-7.79-.52-11.68-.82-7.01-.55-14.03-1.18-21.01-2-2.48-.29-4.96-.61-7.43-.98-1.68-.25-3.39-.53-5.05-.9-2.22-.5-4.51-1.48-6.55-2.46-2.52-1.21-4.99-2.58-7.4-4-4.36-2.58-8.64-5.39-12.79-8.3l-1.33-.11c-.7-.06-1.39-.25-2.02-.58-2.67-1.37-3.73-4.64-2.37-7.31,4.48-8.74,9.11-17.45,13.87-26.04,2.33-4.21,4.71-8.41,7.18-12.55,1.88-3.13,3.86-6.4,6.05-9.32,4.13-5.51,10.05-9.5,16.31-12.22,2.18-.94,4.43-1.75,6.71-2.4.92-.26,1.89-.52,2.83-.7l.35-.07c14.58-3.25,29.08-6.68,43.87-8.92,8.99-1.36,18.12-2.31,27.21-2.37,8.5-.06,17.17.66,25.4,2.86,2.89.77,4.63,3.78,3.86,6.67-.77,2.89-3.78,4.63-6.67,3.86-7.6-2.02-15.66-2.62-23.5-2.53-8.6.11-17.23,1.06-25.72,2.38-9.05,1.41-18.01,3.27-26.95,5.25l11.68,54.31c11.99.7,24.01,1.28,36.01,1.78,3.4.14,6.81.27,10.21.4,5.81.21,11.63.39,17.45.48,4.02.07,8.14.14,12.16-.06,4.02-.19,8.14-.4,12.14-.86.74-.08,1.49-.18,2.23-.31.17-.03.41-.07.58-.13,2.65-1.35,5.9-.31,7.28,2.33.49.94.7,2,.59,3.05Z"/>
      <path class="cls-3" d="M661.11,465.27c-2.16-.5-3.52-2.92-3.52-5.02,0-2.48-.39-5.19-.82-7.62-.81-4.6-2.03-9.21-3.45-13.72-1.86,2.76-4.12,5.46-4.12,5.46l-7.71-14.27c-.36-.05-.71-.11-1.07-.16-1.7-.23-7.32-.92-8.82-.26-.22.1-.41.22-.59.37-.41.59-.73,1.26-.82,1.99-.29,2.55,3.13,11.93,3.93,14.54.8,2.62,4.15,12.36,4.15,12.36l2.69,3.56.65.65s1.38-.15,2.04,1.24c.65,1.38,1.02,2.4.8,3.05-.22.65-.36.73-.36.73,0,0,15.78.29,17.96.36.59.02,1.19-.1,1.77-.28.62-1.9-1.05-2.6-2.7-2.99Z"/>
      <path class="cls-6" d="M704.49,527.32c.12-2.03-.32-4.05-1.27-5.87-1.96-3.75-5.8-6.08-10.03-6.08-1.1,0-10.58-1.76-15.54-3-6.25-1.56-17.38-2.98-26.95-4.01l-5.26-36.19c-.56-3.91-3.62-6.97-7.41-7.64,1.01-.04,2.01-.06,3-.07.51,0,1.01,0,1.52,0,7.82,0,14.49.76,20.39,2.34.95.25,1.93.38,2.91.38,5.12,0,9.62-3.45,10.95-8.4.78-2.91.37-5.96-1.14-8.59-1.52-2.62-3.96-4.49-6.87-5.27-7.72-2.06-16.22-3.06-25.99-3.06h-.97c-8.43.06-17.6.86-28.05,2.44-13.02,1.97-25.94,4.87-38.43,7.68-1.92.43-3.83.86-5.75,1.29l-.26.05c-1.22.23-2.43.56-3.34.82-2.51.71-5.01,1.61-7.44,2.66-7.97,3.46-14.26,8.2-18.67,14.08-2.31,3.08-4.34,6.41-6.39,9.83-2.17,3.63-4.49,7.67-7.28,12.72-4.75,8.58-9.45,17.39-13.96,26.21-1.38,2.69-1.62,5.75-.69,8.63.93,2.87,2.92,5.21,5.61,6.58,1.25.64,2.58,1.03,3.96,1.18,4.18,2.89,8.07,5.39,11.87,7.63,2.97,1.76,5.47,3.1,7.86,4.25,2.1,1,4.88,2.24,7.8,2.89,1.73.39,3.44.67,5.46.98,2.26.34,4.68.66,7.62,1.01,6.34.75,13.09,1.39,21.24,2.03,2.39.19,4.85.37,7.33.53l2.97,13.82c.06.31.14.61.23.92,1.09,3.97,3.04,8.22,5.5,11.99,4.68,7.18,11.14,12.34,18.67,14.93,4.28,1.47,8.79,2.49,12.25,3.22,4.48.94,9.23,1.77,14.53,2.54.87.13,1.74.25,2.62.37,6.18.84,11.78,1.41,17.12,1.76,2.73.18,5.02.27,7.19.29.32,0,.63,0,.95,0,1.92,0,3.48-.07,4.9-.22,6.03-.65,10.98-2.27,14.71-4.81,1.35-.92,3.8-2.83,5.06-5.35.02-.05.05-.1.07-.14.75-1.26,1.25-2.63,1.48-4.07,1.85-11.03,3.94-23.54,5.11-36.07.9-9.69,1.17-18.59.82-27.22ZM564.56,530.36c-2.68-.31-4.85-.59-6.84-.89-1.37-.21-2.82-.43-4.15-.73-1.28-.29-3.25-1.28-4-1.65-1.83-.92-3.82-2.04-6.27-3.54-1.84-1.12-3.73-2.33-5.69-3.64,2.66-5.05,5.71-10.75,8.96-16.58l24.51,24.57c1.36,1.47,3.24,2.77,4.59,3.61-3.99-.36-7.63-.74-11.1-1.14ZM558.74,483.51c2.08-2.35,5.12-4.41,8.88-6.01,1.43-.61,2.91-1.13,4.39-1.54.34-.1.74-.21,1.14-.3l6.11,28.42-20.52-20.56ZM662.23,582.08c-3.88-.33-7.85-.78-12.13-1.36-.63-.08-1.26-.17-1.88-.26-4.83-.69-9.14-1.43-13.16-2.26-3.11-.64-6.73-1.45-10.03-2.59-2.88-.99-5.32-3.03-7.25-6.05-1.05-1.64-1.94-3.58-2.4-5.2l-1.66-7.7c5.17.22,10.4.4,15.63.54,3.46.09,6.78.16,10.02.21.16.64.32,1.26.5,1.84,3.37,11.24,14.3,15.6,15.48,16.04l.36.14.41.11c.34.12,2.89,1.07,9.24,5.04-.05.58-.08,1.16-.13,1.75-1.08-.08-2.1-.16-3.01-.24Z"/>
      <path class="cls-3" d="M589.56,520.33c-1.57-.47-3.15-1.12-4.53-2-.36-.23-.8-.53-1.16-.85l-.02.02-.31-.34s-.07-.07-.1-.11l-33.05-33.12.2-.31c.89-1.39,1.81-2.78,2.8-4.1,3.2-4.26,7.87-7.31,12.73-9.37,2.16-.92,4.72-1.82,7.07-2.32v-.02s.44-.09.44-.09c.03,0,.06-.01.09-.02,1.32-.29,2.65-.59,3.97-.89l1.8-5.88,1.37,7.64,11.11,51.67c.17.53.58,1.37,1.07,1.67.4.24,1,.44,1.47.44h1.09l-.77.77c-.16.16-.67.29-.87.33-.62.12-1.26.07-1.86-.11-1.14-.34-2.13-1.88-2.53-3.03M598.73,542.14c-.74.29-1.75.26-2.49.08-1-.25-1.92-1.32-2.39-2.27-2.77-.19-5.54-.39-8.31-.6-6.81-.53-13.63-1.14-20.42-1.93-2.36-.27-4.73-.57-7.09-.92-1.56-.23-3.15-.48-4.69-.83-1.91-.43-3.98-1.39-5.73-2.27-2.33-1.17-4.6-2.49-6.83-3.85-3.82-2.33-7.55-4.83-11.21-7.41l-.32-.23.18-.35c5.06-9.72,10.24-19.45,15.71-28.94-1.68-2.71-3.02-6.66-.91-9.46l.26-.34.71.48-.22.37c-.58.97-.56,2.43-.18,3.46.47,1.29,1.2,2.75,1.97,3.91l31.18,31.24h0c.92,1.02,2.58,2.11,3.74,2.78,3.59,2.07,7.7,3.24,11.79,3.75l.32.04,2.29,10.63c.18.48.58,1.13,1.04,1.36.42.21,1.03.38,1.5.38h.45v.9h-.36ZM674.12,534.39c.3,2.31.54,4.62.73,6.94l.04.49h-.5c-2.08-.03-4.18-.07-6.26-.02-12.31.31-24.66.22-36.97-.1-8.91-.24-17.83-.6-26.73-1.09l-.34-.02-2.4-11.18.59.03c14.99.85,30,1.55,45,2.09,4.83.17,9.67.32,14.51.43,3.87.08,7.75.15,11.62.11h.06s.06-.03.09-.05c.94-.55,2.04-1.72,2.7-2.58l.99-1.29-.19,1.62c-.23,2.01-1.28,3.56-2.94,4.62ZM674.41,549.2c.45-.13.9-.3,1.31-.54.94-.55,2.04-1.72,2.7-2.58l.99-1.29-.19,1.62c-.28,2.41-1.73,4.11-3.84,5.12.3,12.61-.7,25.21-1.78,37.76l-.02.19c.36.68.9,1.63,1.41,2.23.87,1.02,2.04,1.38,2.04,1.38,0,0-1.92.36-3.31-.73s-1.78-2.25-1.86-2.71c-3.1-.05-5.76-.23-8.84-.49-4.17-.36-8.34-.84-12.49-1.4-.65-.09-1.3-.18-1.94-.27-4.56-.65-9.11-1.41-13.62-2.34-3.65-.76-7.42-1.63-10.95-2.84-4.76-1.64-8.47-4.91-11.15-9.11-1.41-2.21-2.7-4.94-3.37-7.49h0s-.01-.09-.01-.09l-3.73-17.37.59.03c8.21.43,16.43.75,24.66.97,12.43.33,24.89.42,37.32.1,2.03-.05,4.06-.1,6.1-.16ZM681.52,588.91l-.59.12.05-.6c1.1-12.98,2.03-25.98,1.59-39.02l-.02-.45.45-.02c1.61-.06,3.22-.12,4.82-.22.86-.05,1.73-.11,2.59-.21v-.09s.39-.03.39-.03c1-.08,2.36-.4,3.24-.91.94-.54,2.04-1.72,2.7-2.58l1-1.29-.19,1.62c-.38,3.32-3.06,5.26-6.11,5.88-.95,11.49-2.78,22.89-4.68,34.26.28.53.74,1.32,1.22,1.78.76.73,2.47,1.71,2.47,1.71,0,0-1.27.11-2.72-.65-.97-.51-1.5-.92-1.75-1.22-1.13,1.1-3.22,1.65-4.45,1.93ZM691.15,530.8c.14-.02.27-.04.41-.06l.51-.08h0c.8-.14,1.66-.38,2.33-.77.94-.55,2.04-1.72,2.7-2.58l.99-1.29-.19,1.62c-.37,3.21-2.86,5.11-5.8,5.81.02,2.13,0,4.26-.05,6.39v.27s-.25.12-.25.12c-.2.1-.41.2-.62.29h-.02s-.02.02-.02.02c-2.63.85-5.82,1.09-8.57,1.21l-.44.02-.03-.43c-.24-3.04-.56-6.07-.97-9.09l-.06-.48.48-.03c3.19-.21,6.41-.48,9.58-.94h.01ZM692.89,522.93c-.45.25-2.09.44-2.57.5-1.54.2-3.1.33-4.65.45-2.79.22-5.58.37-8.37.51-4.05.19-8.21.12-12.26.06-5.83-.1-11.66-.28-17.48-.48-3.41-.12-6.81-.25-10.22-.4-12.32-.51-24.64-1.11-36.95-1.83l-.34-.02-12.29-57.15.44-.1c9.36-2.09,18.75-4.06,28.22-5.53,8.57-1.33,17.28-2.29,25.96-2.4,7.99-.1,16.2.52,23.95,2.58,2.01.54,4.1-.67,4.64-2.68.54-2.01-.67-4.1-2.68-4.64-8.08-2.16-16.62-2.86-24.96-2.8-9.02.06-18.07,1-26.97,2.35-14.88,2.25-29.47,5.71-44.15,8.98l-.45.1v-.02c-.75.16-1.5.36-2.22.57-2.21.63-4.39,1.41-6.5,2.32-6.01,2.6-11.72,6.43-15.68,11.71-2.15,2.87-4.11,6.1-5.96,9.18-2.47,4.12-4.83,8.3-7.16,12.5-4.75,8.57-9.38,17.26-13.84,25.99-.95,1.86-.21,4.14,1.65,5.09.15.08.31.14.46.2-.77-1.52-1.13-3.31-.21-4.85l1.08-1.82-.24,2.1c-.09.82.09,1.92.46,2.64.36.71.9,1.54,1.44,2.14,4.3,3.02,8.72,5.95,13.25,8.62,2.37,1.4,4.79,2.75,7.27,3.93,1.93.92,4.11,1.87,6.2,2.34,1.62.36,3.29.63,4.94.88,2.45.37,4.91.69,7.38.98,6.96.82,13.96,1.45,20.94,2,4.19.33,8.38.62,12.57.88l.34.02,4.17,19.39c.03.13.06.25.1.38h0s0,.02,0,.02c.92,3.4,2.66,7.04,4.57,9.97,3.6,5.52,8.53,9.77,14.82,11.93,3.66,1.26,7.56,2.18,11.34,2.97,4.65.98,9.36,1.77,14.07,2.45.85.12,1.7.24,2.55.36,5.5.75,11.06,1.35,16.6,1.71,2.25.15,4.52.26,6.77.28,1.64.02,3.34,0,4.98-.18,3.78-.41,8.12-1.38,11.31-3.57.83-.57,2.08-1.61,2.56-2.54.04-.09.09-.17.12-.26l.02-.04.02-.04c.34-.51.57-1.08.67-1.69,1.98-11.79,3.93-23.61,5.03-35.53.82-8.87,1.16-17.74.77-26.64v-.04s0-.04,0-.04c.09-.76-.05-1.52-.4-2.19-.97-1.85-3.25-2.57-5.1-1.6Z"/>
      <path class="cls-3" d="M644.11,456.53c7.44,0,15.02.67,22.2,2.58,2.01.54,4.1-.67,4.64-2.68.54-2.01-.67-4.1-2.69-4.64-7.94-2.12-16.32-2.83-24.53-2.8.92,1.63,1.81,4.33.37,7.55Z"/>
      <path class="cls-6" d="M547.74,530.91c-5.42,0-9.62-3.57-13-6.43-.46-.39-.9-.77-1.32-1.11-2.13-.45-6.71-1.6-10.05-3.73-5.41-3.46-5.57-8.89-5.57-9.49v-1.02l7.2-13.9,3.92-2.72,7.58,4.12,3.38,1.73,16.71,8.89.25.18c.48.35,4.67,3.59,4.9,8.72.21,4.82-2.83,8.48-3.96,9.8-2.38,3.12-6.12,4.98-10.05,4.98Z"/>
      <path class="cls-9" d="M554.4,514.65c-2.39-3.83-8.68-5.63-12.65-7.54-.9,0-1.94-.14-2.79-.31-2.29-.44-4.5-1.31-6.46-2.58-1.62-1.04-3.27-2.42-4.26-4.1-.04-.06-.07-.12-.11-.19l-5.38,10.38c.04.56.23,1.25.42,1.73.56,1.44,1.56,2.6,2.86,3.43.79.5,1.65.92,2.51,1.28,2.06.86,4.6,1.58,6.81,1.96l.19.03.15.11c3.37,2.61,7.49,7.11,12.05,7.11,4.24,0,7.68-3.44,7.68-7.68,0-1.31-.32-2.51-1.02-3.63ZM535.52,517.43s-.67-.15-1.57-.39h-.02s-.03-.01-.03-.01h-.05s-.01-.02-.01-.02h-.03s-.05-.02-.05-.02h0s-.04-.01-.04-.01h-.05s0-.01,0-.01h-.04s-.05-.03-.05-.03h0s-.05-.01-.05-.01h-.05s0-.01,0-.01h-.05s-.04-.03-.04-.03h0s-.05-.02-.05-.02h-.04s0-.01,0-.01h-.05s-.04-.03-.04-.03h-.01s-.05-.02-.05-.02h-.03s-.02-.01-.02-.01l-.05-.02h-.03s-.02-.02-.02-.02l-.05-.02h-.03s-.02-.02-.02-.02l-.05-.02h-.02s-.03-.02-.03-.02l-.05-.02h-.02s-.03-.02-.03-.02l-.05-.02h-.02s-.03-.02-.03-.02l-.05-.02h-.01s-.04-.02-.04-.02l-.05-.02h-.01s-.04-.02-.04-.02l-.05-.02h0s-.04-.02-.04-.02l-.05-.02h0s-.05-.02-.05-.02l-.05-.02h0l-.05-.02-.05-.02h0s-.05-.02-.05-.02l-.04-.02h0s-.05-.02-.05-.02h-.04s-.01-.02-.01-.02l-.05-.02h-.03s-.01-.02-.01-.02l-.05-.02h-.03s-.02-.02-.02-.02l-.05-.02h-.03s-.02-.02-.02-.02l-.05-.02h-.02s-.02-.02-.02-.02l-.05-.02h-.02s-.03-.02-.03-.02l-.05-.02h-.02s-.03-.02-.03-.02l-.05-.02h-.01s-.03-.02-.03-.02l-.04-.02h0s-.04-.02-.04-.02l-.04-.02h0s-.04-.02-.04-.02l-.04-.02h0s-.04-.02-.04-.02l-.04-.02c-1.75-.82-2.91-1.65-2.91-1.65l3.86-7.85s2.1,1,4.62,1.58c1.57.21,2.83.19,4.39.33l-5.31,9.04Z"/>
      <path class="cls-6" d="M547.74,512.12c3.4,0,6.16,2.76,6.16,6.16s-2.76,6.16-6.16,6.16-6.16-2.76-6.16-6.16,2.76-6.16,6.16-6.16"/>
      <path class="cls-3" d="M547.74,515.64c1.46,0,2.65,1.18,2.65,2.65,0,1.46-1.18,2.65-2.65,2.65s-2.65-1.18-2.65-2.65,1.18-2.65,2.65-2.65Z"/>
      <path class="cls-7" d="M647.21,459.04s-.05.01-.07.02c.03,0,.05-.01.07-.02M641.11,428.55c2.11-.5,3.66,1.16,5.02,3.42.96,1.61,1.57,3.5,2.45,5.41-.23-3.81.37-4.39.37-4.39l10.34-2.98c1.46-.12,2.67,1.18,3.64,3.42,1.27,2.91,1.69,6.76,3.96,9.89,2.27,3.13,4.59,5.31,5.07,10.11.48,4.8-2.34,7.6-2.34,7.6l-6.64-.33c-1.18.18-2.23-1.27-2.43-1.89-.2-.62-.21-.65-.21-.65,0,0,2.96,1.09,4.12-2.4,1.16-3.49-.95-6.25-.95-6.25l-5.17-.15s-.26-.19-.7-.52h0c.44.92.75,1.95.92,3.14.65,4.8-2.62,7.13-2.62,7.13l-9.16.07.02-.04c-1.63.18-3.69-1.19-3.95-1.78l-.29-.65s4.07,1.09,5.67-2.4c1.6-3.49-1.31-6.25-1.31-6.25l-7.13-.15s-5.45-6.84-5.96-11.34c-.51-4.51.44-5.16.44-5.16l6.84-2.84Z"/>
      <path class="cls-3" d="M649.34,458.54l6.39-.05c.48-.4.98-1.03,1.28-1.53.92-1.49,1.19-3.19.95-4.92-.63-4.59-3.77-6.72-6.81-9.76-1.52-1.52-2.51-3.26-3.37-5.21-.7-1.59-1.28-3.31-2.17-4.8-.58-.97-1.42-1.93-2.38-2.54-.52-.33-1.38-.74-2-.47-1.09.46-.88,2.76-.76,3.64.47,3.43,4.98,8.65,7.33,11.16,2.43,2.59,3.66,5.16,3.94,8.73.14,1.69-.27,3.31-1.32,4.65-.31.4-.68.77-1.08,1.1"/>
      <path class="cls-3" d="M665.39,459.99l4.41-.05c.35-.42.68-1.03.87-1.47.69-1.56.86-3.31.7-5-.44-4.5-2.47-6.39-4.96-9.81-1.15-1.58-1.85-3.35-2.44-5.2-.51-1.59-.92-3.28-1.58-4.81-.37-.85-.91-1.77-1.59-2.41-.24-.24-.82-.71-1.2-.6-.87.24-.66,3.15-.61,3.73.34,3.39,3.43,8.4,5.34,11.21,1.86,2.73,2.66,5.35,2.85,8.67.09,1.58-.16,3.18-.94,4.57-.23.41-.52.81-.85,1.17"/>
      <path class="cls-7" d="M642.47,430.76c.81-.3,2,.69,2.66,2.2.65,1.51.52,2.98-.29,3.27-.81.3-2-.69-2.66-2.2-.65-1.51-.52-2.98.29-3.27"/>
      <path class="cls-7" d="M643,431.52s.28.4.47.37c.18-.03.36-.19.54-.05.18.14.4.47.58.79.18.33.23.57.23.57,0,0-.35-.41-.67-.44-.31-.03-.48.01-.48.01l-.75-1.07-.24.59.68,1.02s-.13.31-.11.6c.02.29.11.54.11.54,0,0-.4-.4-.63-1.05-.24-.69-.32-1.67.27-1.87"/>
      <path class="cls-7" d="M660.21,432.23c.58-.23,1.35.67,1.73,2.02.38,1.34.22,2.62-.36,2.85-.58.23-1.35-.67-1.73-2.02-.38-1.34-.22-2.62.36-2.85"/>
      <path class="cls-6" d="M555.3,552.72c5.36,0,9.7,4.35,9.7,9.7s-4.35,9.7-9.7,9.7c-5.36,0-9.7-4.35-9.7-9.7s4.35-9.7,9.7-9.7"/>
      <path class="cls-3" d="M555.3,555.66c3.73,0,6.76,3.03,6.76,6.76s-3.03,6.76-6.76,6.76c-3.73,0-6.76-3.03-6.76-6.76s3.03-6.76,6.76-6.76"/>
      <path class="cls-7" d="M554.9,557.89c2.68,0,4.85,2.17,4.85,4.85,0,2.68-2.17,4.85-4.85,4.85-2.68,0-4.85-2.17-4.85-4.85s2.17-4.85,4.85-4.85"/>
      <path class="cls-3" d="M556.76,565.12c-.51.4-1.16.64-1.86.64-1.67,0-3.02-1.35-3.02-3.02,0-1.32.85-2.44,2.03-2.85-.7.55-1.16,1.41-1.16,2.38,0,1.67,1.35,3.02,3.02,3.02.35,0,.68-.06.99-.17"/>
      <path class="cls-6" d="M531.4,547.07s-20.31-19.86-43.38-22.37c-2.82,9.72,2.99,28.47,2.99,28.47,0,0,7.94,6.63,17.16,9.37,16.44-4.67,23.23-15.47,23.23-15.47Z"/>
      <path class="cls-7" d="M521.49,547.14c-7.44-5.74-16.54-9.87-21.59-11.85,1.07,7.4,3.12,14,3.12,14,0,0,3.19,2.65,7.86,5.29,3.05-1.44,8.48-3.7,10.61-7.43Z"/>
    </g>
    <g id="HELM_LINKS_CARDINALS">
      <path class="cls-6" d="M152.96,600.56c-10.78-7.35-18.46-19.26-20.53-31.85-.84-5.11-.92-10.38-.22-15.65,1.7-12.96,10.82-28.54,17.53-39.14,4.88-7.7,5.71-12.83,2.97-18.3-1.68-3.35-4.91-6.3-9.89-9.01-8.19-4.45-18.84-7.14-26.14-8.77-2.41-.54-5.01-1.02-7.71-1.42-9.92-1.48-21.24-2.01-33.64-1.58h0c-6.41.22-11.49-5.34-10.69-11.7h0c3.08-24.53,13.69-46.94,30.67-64.82,11.22-11.81,24.57-20.98,39.67-27.24,15.61-6.47,32.25-9.48,49.48-8.94,66.22,2.08,120.09,57.13,120.09,122.71,0,21.72-5.95,42.78-17.23,60.98-.35,1.48-.76,3.41-.83,4.79-.12,2.25.03,4.09.19,4.67h0c1.27,4.25-.32,8.83-3.95,11.38l-.08.06c-4.36,3.05-8.69,5.91-12.36,8.31-10.01,6.56-19.1,12.16-27.78,17.12-8.45,4.83-15.41,8.43-21.9,11.32-9.16,4.09-20.93,6.78-32.93,6.78-12.17,0-24.58-2.78-34.74-9.7Z"/>
      <path class="cls-4" d="M184.14,372.55c60.75,1.91,110.01,52.2,110.01,112.3,0,19.59-2.92,30.06-9.18,43.29-.6,1.28-2.57,4.04-5.13,7.19-12.91,13.43-60.75,42.62-68.17,46.58,29.03-9.88,53.91-23.62,64.38-29.99-.03,4.05.64,6.27.64,6.27,0,0-35.02,24.5-60.3,35.77-16.99,7.57-41.68,8.82-57.56-2.01-8.35-5.69-14.48-14.96-16.12-24.94-.63-3.86-.76-8.11-.17-12.6,1.46-11.06,10.48-26.19,16.01-34.92,5.53-8.73,8.73-18.04,3.49-28.52-5.24-10.48-18.34-17.75-43.07-23.28-15.58-3.48-33.12-3.62-43.97-3.24,6.73-53.52,53.04-93.66,109.16-91.89Z"/>
      <path class="cls-1" d="M45.7,591s.97-7.44,10.66-13.77c10.51-6.86,13.92-7.74,13.93-7.75l.2-.05.09-.03s9.33-3.45,11.96-12.25c1.48-4.94,2.19-12.46,2.51-17.16l.63-4.37c8.58-.66,12.15-.5,12.16-.5,1.75.06,3.22-1.31,3.29-3.06.06-1.75-1.31-3.22-3.06-3.29-.01,0-3.48-.15-11.45.41l1.45-9.99c1.44-.13,2.29-.21,2.31-.21h0c.78-.08,1.54-.44,2.11-1.07l20.07-22.69c1.16-1.31,1.04-3.32-.27-4.48-1.31-1.16-3.32-1.04-4.48.27l-18.71,21.15,5.62-38.66c.25-1.74-.96-3.35-2.7-3.6-1.74-.25-3.35.96-3.6,2.7l-5.92,40.73c-8.86.89-23.48,2.54-30.68,4.34-10.63,2.66-17.64,5.34-17.66,5.35-1.64.62-2.47,2.45-1.86,4.1.62,1.64,2.45,2.47,4.1,1.86.02,0,6.65-2.55,16.96-5.12,6.43-1.61,19.44-3.12,28.2-4.01l-1.44,9.89c-1.61.15-3.33.32-5.18.52-16.58,1.79-39.85,10.78-39.92,10.8-1.64.63-2.47,2.46-1.84,4.11.63,1.64,2.46,2.47,4.11,1.84.06-.02,22.62-8.73,38.33-10.43,1.15-.12,2.25-.24,3.3-.34-.03.64-.08,1.67-.16,2.94l-2.38,16.36v.07c-1.84,5.56-8.02,7.85-8.03,7.86h0c-1.14.37-5.77,2.13-15.46,8.46-12.12,7.92-13.47,18.2-13.48,18.23l6.3.87Z"/>
      <g>
        <path class="cls-6" d="M250.22,396.46c9.54,7.4,17.86,16.26,24.63,26.22-28.88-14.65-78.02-14.73-132.48-.89,25.34-33.73,86.46-32.9,107.85-25.33Z"/>
        <path class="cls-3" d="M83.97,433.23c17.31-37.1,55.66-62.08,100.18-60.68,17.03.54,33.16,4.88,47.56,12.17-67.02-9.97-113.47,18.75-125.03,49.72l-22.71-1.21Z"/>
      </g>
      <path class="cls-6" d="M75.12,463.41l-3.34,2.23s19.93,6.69,26.18,13.53c6.25,6.84,12.8,14.11,9.02,27.78-3.78,13.67-10.18,22.11-11.05,35.05-.87,12.94,3.78,20.94,10.33,26.91,6.54,5.96,22.54,8.73,32,8.73,3.23,0,5.77-.22,7.73-.51-1.58-3.2-2.7-6.6-3.28-10.1-.63-3.86-.76-8.11-.17-12.6,1.46-11.06,10.48-26.19,16.01-34.92,5.53-8.73,8.73-18.04,3.49-28.52-5.24-10.48-18.34-17.75-43.07-23.28-15.58-3.48-33.12-3.62-43.97-3.24.04-.35.1-.69.14-1.04"/>
      <path class="cls-2" d="M97.5,428.95h.01c.05.01.1.02.15.04h0s0,0,0,0h0c.05.01.1.03.15.04h0s0,0,0,0h0s.09.03.13.04h0s0,0,0,0h0s-1.2-.54.13.05c1.33.59,3.64,2.18,2.25,6.98-1.38,4.8-3.27,12.29-3.93,14.54-.65,2.25-2.69,8.58-2.69,8.58l-2.54,4.07,1.38.95,2.4.22s0,1.96-1.82,1.67c-1.82-.29-5.6-1.53-6.11-1.02-.51.51-1.16,1.67-.8,2.4.36.73,6.54,2.84,6.54,2.84l-.07,1.45s-11.71-.51-14.69-.29c-2.98.22-5.89.44-5.89.44,0,0-6.04-.87-6.98-3.27-.01-.03-.03-.07-.04-.1h0s0-.02,0-.02l-.03-.1h0s0-.01,0-.01l-.02-.08h0s0-.03,0-.03h0s0-.02,0-.02h0s0-.04,0-.04h0s0-.02,0-.02v-.02s0-.01,0-.01h0s0-.02,0-.02h0s0-.02,0-.02h0s0-.02,0-.02h0s0-.04,0-.04h0s0-.02,0-.02h0s0-.02,0-.02h0s0-.02,0-.02v-.04s-.01-.01-.01-.01h0c-.38-1.94,1.29-2.87,3.26-3.33,2.18-.51,3.05-3.05,3.05-4.44,0-1.38.15-10.18,6.18-27.13,0,0,.29-1.16,2.55-2.04,2.12-.82,13.89-2.85,17.5-2.14"/>
      <path class="cls-4" d="M49.99,452.67c.61-6.14,3.29-9.64,5.45-12.45.34-.44.68-.88,1.02-1.35.71-.98,1.19-2.57,1.69-4.25.41-1.36.83-2.77,1.46-4.21,3.02-6.93,7.8-7.96,10.38-7.96.27,0,.53.01.81.03l.75.06,6.5,1.88c.63-.21,1.21-.35,1.61-.45.22-.05.43-.1.64-.15,2.16-1.93,4.6-2.9,7.32-2.9.83,0,1.67.1,2.49.29l.59.14,1.58.66c1.1-.09,2.23-.15,3.26-.15,2.28,0,3.94.29,5.38.93.84.37,1.62.85,2.32,1.43l.79.65.59.84c1.2,1.7,1.92,3.54,2.14,5.48.36,3.16-.79,7.33-3.51,15.49-.3.89-.54,1.63-.69,2.11-.83,2.71-4.09,12.21-4.22,12.61l-.39,1.14-2.52,3.34.56.94h-1.26s-.51.66-.51.66l-1.03,1.03-2.36,2.73-3.76-.56s.25.04.67.04c1.91,0,3.69-1.01,4.65-2.62.06-.26.12-.72.1-1.3l-4.95-.04-2.02,8.98c-15.7.62-25.84-1.43-25.84-1.43l-2.8-5.58-2.37-2.36c-2.47-2.46-5.13-7.52-4.52-13.69Z"/>
      <path class="cls-2" d="M139.53,518.72c1.36-.41,2.73-.97,3.94-1.72.39-.24.93-.61,1.25-.94l.84-.89.03.03,31.4-31.46c-.7-1.08-1.43-2.16-2.21-3.19-3.01-4.02-7.47-6.89-12.05-8.84-1.66-.71-3.37-1.31-5.11-1.8-.68-.19-1.38-.38-2.07-.51l-1.19-.23v-.05c-1.05-.24-2.11-.48-3.18-.72l-.68-.15-.08-.25-.17.93-10.71,49.8M143.8,537.7c6.79-.53,13.59-1.13,20.35-1.92,2.35-.27,4.7-.57,7.03-.91,1.52-.23,3.07-.47,4.57-.81,1.77-.4,3.73-1.32,5.35-2.13,2.29-1.15,4.52-2.44,6.7-3.78,3.49-2.13,6.91-4.4,10.26-6.74-4.92-9.44-9.97-18.88-15.28-28.11l-30.07,30.13c-.99,1.1-2.82,2.33-4.07,3.05-3.54,2.05-7.57,3.29-11.62,3.88l-1.71,7.96c2.83-.19,5.66-.39,8.49-.61ZM57.03,534.31c-.25,1.94-.47,3.89-.64,5.83,1.66-.02,3.33-.04,4.99,0,12.29.31,24.6.22,36.89-.1,8.59-.23,17.18-.57,25.76-1.04l1.68-7.82c-14.47.81-28.97,1.49-43.46,2-4.84.17-9.69.32-14.53.43-3.53.08-7.08.13-10.62.12l-.08.58ZM66.31,587.53c4.15-.36,8.29-.83,12.41-1.39.64-.09,1.29-.18,1.93-.27,4.52-.65,9.05-1.4,13.52-2.33,3.58-.74,7.29-1.6,10.74-2.79,4.4-1.51,7.81-4.55,10.29-8.44,1.31-2.05,2.52-4.61,3.16-6.99v-.03s3.29-15.28,3.29-15.28c-7.71.39-15.42.68-23.13.89-12.46.33-24.95.42-37.41.1-1.79-.05-3.57-.09-5.36-.14v.41c-.32,12.28.62,24.54,1.66,36.76,2.96-.05,5.95-.27,8.89-.52ZM45.82,586.56c.2.12.52.23.88.34-1.01-12.1-1.83-24.2-1.49-36.35-1.22-.05-2.44-.1-3.66-.18-.64-.04-1.28-.08-1.92-.14l.03.41c.93,11.48,2.76,22.86,4.65,34.22.62.45,1.14,1.03,1.52,1.7ZM46.52,533.3c-2.5-.18-5.02-.4-7.5-.73v.54c-.03,1.98-.02,3.95.02,5.93,2.07.63,4.52.88,6.76,1.01.19-2.25.43-4.5.72-6.74ZM30.02,523.76c1.38-2.64,4.63-3.68,7.28-2.33.17.06.41.1.58.13.73.14,1.49.23,2.23.31,4.01.46,8.12.66,12.14.86,4.02.19,8.14.12,12.16.06,5.82-.1,11.64-.28,17.45-.48,3.4-.12,6.81-.25,10.21-.4,12-.5,24.01-1.08,36.01-1.78l11.68-54.31c-8.94-1.98-17.9-3.84-26.95-5.25-8.49-1.32-17.12-2.27-25.72-2.38-7.84-.1-15.9.5-23.5,2.53-2.89.77-5.9-.96-6.67-3.86-.77-2.89.96-5.9,3.86-6.67,8.23-2.2,16.9-2.92,25.4-2.86,9.1.06,18.22,1.01,27.21,2.37,14.79,2.24,29.29,5.67,43.87,8.92l.35.07c.94.18,1.91.44,2.83.7,2.28.65,4.53,1.46,6.71,2.4,6.26,2.72,12.18,6.71,16.31,12.22,2.19,2.92,4.18,6.19,6.05,9.32,2.47,4.13,4.85,8.33,7.18,12.55,4.76,8.59,9.39,17.3,13.87,26.04,1.37,2.67.31,5.95-2.37,7.31-.63.32-1.31.52-2.02.58l-1.33.11c-4.16,2.91-8.43,5.72-12.79,8.3-2.41,1.42-4.87,2.8-7.4,4-2.05.98-4.34,1.96-6.55,2.46-1.66.37-3.37.65-5.05.9-2.47.37-4.95.69-7.43.98-6.98.82-14,1.46-21.01,2-3.89.3-7.79.57-11.68.82l-3.91,18.16c-.04.17-.08.34-.13.51-.97,3.57-2.77,7.34-4.78,10.42-3.8,5.83-9.03,10.31-15.66,12.59-3.72,1.28-7.69,2.21-11.54,3.02-4.69.98-9.43,1.79-14.17,2.47-.86.12-1.71.24-2.57.36-5.54.75-11.14,1.36-16.72,1.72-2.28.15-4.58.26-6.86.28-1.71.02-3.47,0-5.17-.19-4.07-.44-8.61-1.49-12.04-3.83-1.07-.73-2.54-1.98-3.13-3.17-.05-.09-.09-.18-.13-.27-.43-.68-.73-1.44-.86-2.24-1.98-11.83-3.94-23.69-5.05-35.65-.83-8.91-1.16-17.83-.78-26.77-.11-1.06.1-2.11.59-3.05Z"/>
      <path class="cls-3" d="M68.35,465.27c2.16-.5,3.52-2.92,3.52-5.02,0-2.48.39-5.19.82-7.62.81-4.6,2.03-9.21,3.45-13.72,1.86,2.76,4.12,5.46,4.12,5.46l7.71-14.27c.36-.05.71-.11,1.07-.16,1.7-.23,7.32-.92,8.82-.26.22.1.41.22.59.37.41.59.73,1.26.82,1.99.29,2.55-3.13,11.93-3.93,14.54-.8,2.62-4.15,12.36-4.15,12.36l-2.69,3.56-.65.65s-1.38-.15-2.04,1.24c-.65,1.38-1.02,2.4-.8,3.05.22.65.36.73.36.73,0,0-15.78.29-17.96.36-.59.02-1.19-.1-1.77-.28-.62-1.9,1.05-2.6,2.7-2.99Z"/>
      <path class="cls-6" d="M24.37,554.13c1.16,12.54,3.26,25.04,5.11,36.07.24,1.44.74,2.81,1.48,4.07.02.05.05.1.07.14,1.26,2.51,3.71,4.43,5.06,5.35,3.73,2.54,8.68,4.16,14.71,4.81,1.42.15,2.98.22,4.9.22.32,0,.64,0,.95,0,2.17-.02,4.46-.12,7.19-.29,5.34-.35,10.94-.93,17.12-1.76.88-.12,1.75-.24,2.62-.37,5.3-.77,10.05-1.6,14.53-2.54,3.45-.72,7.97-1.74,12.25-3.22,7.53-2.59,13.99-7.76,18.67-14.93,2.46-3.77,4.41-8.03,5.5-11.99.09-.3.17-.61.23-.92l2.97-13.82c2.48-.17,4.94-.35,7.33-.53,8.15-.63,14.9-1.28,21.24-2.03,2.94-.35,5.36-.67,7.62-1.01,2.02-.31,3.73-.59,5.46-.98,2.91-.65,5.7-1.89,7.8-2.89,2.39-1.14,4.89-2.49,7.86-4.25,3.79-2.24,7.69-4.75,11.87-7.63,1.39-.14,2.72-.54,3.96-1.18,2.68-1.37,4.68-3.71,5.61-6.58.93-2.87.68-5.94-.69-8.63-4.51-8.82-9.21-17.63-13.96-26.21-2.79-5.04-5.11-9.09-7.28-12.72-2.05-3.42-4.08-6.75-6.39-9.83-4.41-5.89-10.7-10.62-18.67-14.08-2.43-1.06-4.93-1.95-7.44-2.66-.91-.26-2.11-.59-3.34-.82l-.26-.05c-1.92-.43-3.84-.86-5.75-1.29-12.49-2.81-25.41-5.71-38.43-7.68-10.45-1.58-19.62-2.38-28.05-2.43h-.97c-9.77,0-18.27,1-25.99,3.06-2.91.78-5.36,2.65-6.87,5.27-1.52,2.62-1.92,5.67-1.14,8.59,1.32,4.94,5.82,8.4,10.95,8.4.98,0,1.96-.13,2.91-.38,5.9-1.57,12.57-2.34,20.39-2.34.51,0,1.01,0,1.52,0,.98.01,1.98.04,3,.07-3.79.67-6.85,3.73-7.41,7.64l-5.26,36.19c-9.58,1.03-20.7,2.45-26.95,4.01-4.97,1.24-14.44,3-15.54,3-4.23,0-8.07,2.33-10.03,6.08-.95,1.82-1.38,3.84-1.27,5.87-.35,8.62-.08,17.53.82,27.22ZM152.38,531.09c1.35-.84,3.23-2.13,4.59-3.61l24.51-24.57c3.25,5.83,6.3,11.54,8.96,16.58-1.97,1.31-3.85,2.51-5.69,3.64-2.45,1.5-4.45,2.62-6.27,3.54-.74.37-2.72,1.36-4,1.65-1.33.3-2.78.52-4.15.73-1.99.3-4.17.58-6.84.89-3.47.4-7.11.78-11.1,1.14ZM148.77,503.67l6.11-28.42c.4.09.8.2,1.14.3,1.48.41,2.96.93,4.39,1.54,3.76,1.6,6.8,3.67,8.88,6.01l-20.52,20.56ZM62.8,581.91c-.05-.58-.09-1.16-.13-1.75,6.35-3.97,8.91-4.92,9.24-5.04l.41-.11.36-.14c1.18-.44,12.11-4.8,15.48-16.04.18-.59.34-1.21.5-1.84,3.24-.05,6.57-.12,10.02-.21,5.23-.14,10.46-.32,15.63-.54l-1.66,7.7c-.45,1.63-1.34,3.56-2.4,5.2-1.93,3.02-4.37,5.05-7.25,6.05-3.3,1.13-6.92,1.95-10.03,2.59-4.02.83-8.33,1.57-13.16,2.26-.63.09-1.26.18-1.88.26-4.28.58-8.25,1.03-12.13,1.36-.91.08-1.92.16-3.01.24Z"/>
      <path class="cls-3" d="M139.91,520.33c-.4,1.15-1.39,2.69-2.53,3.03-.6.18-1.24.22-1.86.11-.21-.04-.72-.17-.87-.33l-.77-.77h1.09c.47,0,1.08-.2,1.47-.44.49-.3.9-1.14,1.07-1.67l11.11-51.67,1.37-7.64,1.8,5.88c1.32.3,2.65.6,3.97.89.03,0,.06.01.09.02l.45.09v.02c2.35.5,4.91,1.4,7.07,2.32,4.85,2.07,9.53,5.11,12.73,9.37.99,1.32,1.91,2.71,2.8,4.1l.2.31-33.05,33.12s-.07.07-.1.11l-.31.34-.02-.02c-.36.32-.8.62-1.16.85-1.38.88-2.96,1.53-4.53,2M130.38,542.14v-.9s.45,0,.45,0c.47,0,1.08-.17,1.5-.38.45-.23.86-.89,1.04-1.36l2.29-10.63.32-.04c4.09-.51,8.21-1.68,11.79-3.75,1.16-.67,2.82-1.76,3.74-2.77h0s31.18-31.25,31.18-31.25c.77-1.15,1.5-2.62,1.97-3.91.38-1.03.4-2.49-.18-3.46l-.22-.37.71-.48.26.34c2.1,2.81.77,6.75-.91,9.46,5.47,9.49,10.65,19.22,15.71,28.94l.18.35-.32.23c-3.66,2.57-7.4,5.08-11.21,7.41-2.22,1.36-4.5,2.68-6.83,3.85-1.75.88-3.82,1.84-5.73,2.27-1.54.35-3.13.59-4.69.83-2.36.35-4.72.65-7.09.92-6.79.79-13.61,1.4-20.42,1.93-2.77.22-5.54.42-8.31.6-.48.95-1.39,2.01-2.39,2.27-.74.18-1.75.21-2.49-.08h-.36ZM52.41,529.76l-.19-1.62.99,1.29c.66.86,1.76,2.03,2.7,2.58.03.02.06.03.09.05h.06c3.87.04,7.75-.02,11.62-.11,4.84-.1,9.67-.26,14.51-.43,15-.54,30.02-1.24,45-2.09l.59-.03-2.4,11.18-.34.02c-8.9.49-17.81.86-26.73,1.09-12.31.32-24.66.42-36.97.1-2.08-.05-4.18,0-6.26.01h-.5s.04-.49.04-.49c.19-2.32.43-4.63.73-6.94-1.66-1.06-2.71-2.61-2.94-4.62ZM61.16,549.36c12.43.32,24.89.22,37.32-.1,8.22-.22,16.44-.54,24.66-.97l.59-.03-3.73,17.37v.07s-.02.01-.02.01c-.68,2.55-1.96,5.28-3.37,7.49-2.68,4.2-6.39,7.47-11.15,9.11-3.52,1.21-7.3,2.09-10.95,2.84-4.51.93-9.06,1.69-13.62,2.34-.65.09-1.29.18-1.94.27-4.15.56-8.32,1.04-12.49,1.4-3.08.26-5.74.45-8.84.49-.08.47-.47,1.62-1.86,2.71s-3.31.73-3.31.73c0,0,1.16-.36,2.04-1.38.51-.6,1.05-1.55,1.41-2.23l-.02-.19c-1.08-12.56-2.08-25.15-1.78-37.76-2.11-1.01-3.56-2.71-3.84-5.12l-.19-1.62.99,1.29c.66.86,1.76,2.03,2.7,2.58.4.23.86.4,1.31.54,2.03.05,4.06.11,6.1.16ZM43.5,586.98c-.25.3-.78.72-1.75,1.22-1.45.76-2.72.65-2.72.65,0,0,1.71-.98,2.47-1.71.48-.45.94-1.24,1.22-1.78-1.9-11.37-3.73-22.76-4.68-34.26-3.05-.62-5.73-2.57-6.11-5.88l-.19-1.62,1,1.29c.66.86,1.76,2.03,2.7,2.58.87.51,2.23.82,3.24.91l.39.03v.09c.86.1,1.73.15,2.59.21,1.6.1,3.21.16,4.82.22l.45.02-.02.45c-.44,13.04.49,26.04,1.59,39.02l.05.6-.59-.12c-1.23-.28-3.32-.83-4.45-1.93ZM38.33,530.8c3.16.46,6.39.73,9.58.94l.48.03-.06.48c-.41,3.02-.73,6.05-.97,9.09l-.03.43-.44-.02c-2.75-.12-5.94-.36-8.57-1.21h-.02s-.02-.02-.02-.02c-.21-.09-.42-.19-.62-.29l-.24-.12v-.27c-.06-2.13-.08-4.26-.06-6.39-2.94-.7-5.42-2.6-5.8-5.81l-.19-1.62.99,1.29c.66.86,1.76,2.03,2.7,2.58.67.39,1.53.63,2.33.78h0s.51.07.51.07c.14.02.27.04.41.06h.01ZM31.49,524.53c-.35.68-.49,1.44-.4,2.19v.04s0,.04,0,.04c-.38,8.9-.05,17.77.77,26.64,1.11,11.91,3.06,23.73,5.03,35.53.1.6.33,1.18.67,1.69l.02.04.02.04c.04.09.08.18.12.26.48.93,1.73,1.97,2.56,2.54,3.2,2.18,7.53,3.16,11.31,3.57,1.63.18,3.34.19,4.98.18,2.26-.02,4.52-.13,6.77-.28,5.54-.36,11.1-.96,16.6-1.71.85-.11,1.7-.23,2.55-.36,4.71-.68,9.41-1.48,14.07-2.45,3.78-.79,7.69-1.71,11.34-2.97,6.28-2.16,11.22-6.41,14.82-11.93,1.91-2.93,3.65-6.56,4.57-9.97h0s0-.02,0-.02c.04-.12.07-.25.1-.38l4.17-19.39.34-.02c4.19-.26,8.38-.55,12.57-.88,6.99-.54,13.98-1.17,20.94-2,2.46-.29,4.92-.61,7.38-.98,1.65-.25,3.32-.52,4.94-.88,2.09-.47,4.28-1.42,6.2-2.34,2.48-1.19,4.9-2.53,7.27-3.93,4.52-2.67,8.95-5.6,13.25-8.62.54-.61,1.07-1.43,1.44-2.14.37-.73.55-1.82.46-2.64l-.24-2.1,1.08,1.82c.92,1.55.56,3.33-.21,4.85.16-.06.31-.12.46-.2,1.86-.95,2.6-3.23,1.65-5.09-4.47-8.72-9.09-17.42-13.84-25.99-2.32-4.2-4.69-8.38-7.16-12.5-1.85-3.08-3.8-6.31-5.96-9.18-3.96-5.28-9.67-9.11-15.68-11.71-2.11-.91-4.29-1.7-6.5-2.32-.73-.21-1.48-.41-2.22-.57v.02s-.46-.1-.46-.1c-14.68-3.27-29.26-6.73-44.15-8.98-8.91-1.35-17.96-2.29-26.97-2.35-8.34-.06-16.88.64-24.96,2.8-2.01.54-3.22,2.63-2.68,4.64.54,2.01,2.63,3.22,4.64,2.68,7.74-2.06,15.95-2.68,23.95-2.58,8.68.11,17.39,1.06,25.96,2.4,9.47,1.47,18.87,3.44,28.22,5.53l.44.1-12.29,57.15-.34.02c-12.31.72-24.63,1.32-36.95,1.83-3.41.14-6.81.28-10.22.4-5.82.21-11.65.39-17.48.48-4.06.07-8.21.14-12.26-.06-2.79-.13-5.59-.29-8.37-.51-1.55-.12-3.11-.26-4.65-.45-.48-.06-2.12-.26-2.57-.5-1.85-.96-4.13-.25-5.1,1.6Z"/>
      <path class="cls-3" d="M85.36,456.53c-7.44,0-15.02.67-22.2,2.58-2.01.54-4.1-.67-4.64-2.68-.54-2.01.67-4.1,2.69-4.64,7.94-2.12,16.32-2.83,24.53-2.8-.92,1.63-1.81,4.33-.37,7.55Z"/>
      <path class="cls-6" d="M181.73,530.91c5.42,0,9.62-3.57,13-6.43.46-.39.9-.77,1.32-1.11,2.13-.45,6.71-1.6,10.05-3.73,5.41-3.46,5.57-8.89,5.57-9.49v-1.02s-7.2-13.9-7.2-13.9l-3.92-2.72-7.58,4.12-3.38,1.73-16.71,8.89-.25.18c-.48.35-4.67,3.59-4.9,8.72-.21,4.82,2.83,8.48,3.96,9.8,2.38,3.12,6.12,4.98,10.05,4.98Z"/>
      <path class="cls-9" d="M174.05,518.28c0,4.24,3.44,7.68,7.68,7.68,4.56,0,8.67-4.5,12.05-7.11l.15-.11.19-.03c2.21-.38,4.75-1.1,6.81-1.96.86-.36,1.72-.77,2.51-1.28,1.3-.83,2.3-1.99,2.86-3.43.19-.48.38-1.17.42-1.73l-5.38-10.38c-.04.07-.07.13-.11.19-.99,1.68-2.64,3.06-4.26,4.1-1.96,1.27-4.17,2.14-6.46,2.58-.85.16-1.9.31-2.79.31-3.97,1.92-10.26,3.71-12.65,7.54-.69,1.11-1.02,2.32-1.02,3.63ZM188.64,508.39c1.56-.14,2.83-.12,4.39-.33,2.52-.58,4.62-1.58,4.62-1.58l3.86,7.85s-1.16.83-2.91,1.65l-.04.02-.04.02h0s-.04.02-.04.02l-.04.02h0s-.04.02-.04.02l-.04.02h0s-.04.02-.04.02h-.03s-.01.02-.01.02l-.05.02h-.03s-.02.02-.02.02l-.05.02h-.03s-.02.02-.02.02l-.05.02h-.02s-.02.02-.02.02l-.05.02h-.02s-.03.02-.03.02l-.05.02h-.02s-.03.02-.03.02l-.05.02h-.01s-.03.02-.03.02l-.05.02h-.01s-.04.02-.04.02l-.05.02h0s-.04.02-.04.02l-.05.02h0s-.05.02-.05.02l-.05.02h0l-.05.02-.05.02h0s-.05.02-.05.02h-.04s0,.02,0,.02l-.05.02h-.04s-.01.02-.01.02l-.05.02h-.04s-.01.02-.01.02l-.05.02h-.03s-.02.02-.02.02l-.05.02h-.03s-.02.02-.02.02l-.05.02h-.03s-.02.02-.02.02l-.05.02h-.02s-.03.02-.03.02l-.05.02h-.02s-.03.02-.03.02l-.05.02h-.02s-.03.01-.03.01l-.05.02h-.01s-.04.01-.04.01h-.05s0,.02,0,.02h-.04s-.05.03-.05.03h0s-.04.01-.04.01h-.05s0,.01,0,.01h-.05s-.05.03-.05.03h0s-.05.01-.05.01h-.04s0,.01,0,.01h-.05s-.04.02-.04.02h0s-.05.02-.05.02h-.03s-.01.01-.01.01h-.05s-.03.02-.03.02h-.02c-.89.25-1.57.39-1.57.39l-5.31-9.04Z"/>
      <path class="cls-6" d="M181.73,512.12c-3.4,0-6.16,2.76-6.16,6.16s2.76,6.16,6.16,6.16,6.16-2.76,6.16-6.16-2.76-6.16-6.16-6.16"/>
      <path class="cls-3" d="M184.38,518.28c0,1.46-1.18,2.65-2.65,2.65s-2.65-1.18-2.65-2.65c0-1.46,1.18-2.65,2.65-2.65s2.65,1.18,2.65,2.65Z"/>
      <path class="cls-7" d="M82.26,459.04s.05.01.07.02c-.03,0-.05-.01-.07-.02M95.2,431.38s.95.65.44,5.16c-.51,4.51-5.96,11.34-5.96,11.34l-7.13.15s-2.91,2.76-1.31,6.25c1.6,3.49,5.67,2.4,5.67,2.4l-.29.65c-.26.59-2.32,1.96-3.95,1.78l.02.04-9.16-.07s-3.27-2.33-2.62-7.13c.16-1.19.48-2.22.92-3.14h0c-.44.34-.7.52-.7.52l-5.17.15s-2.11,2.76-.95,6.25c1.16,3.49,4.12,2.4,4.12,2.4,0,0-.01.03-.21.65-.2.62-1.25,2.07-2.43,1.89l-6.64.33s-2.81-2.8-2.34-7.6c.47-4.8,2.8-6.98,5.07-10.11,2.27-3.13,2.69-6.98,3.96-9.89.97-2.24,2.18-3.54,3.64-3.42l10.34,2.98s.61.58.37,4.39c.88-1.9,1.49-3.8,2.45-5.41,1.36-2.26,2.91-3.92,5.02-3.42l6.84,2.84Z"/>
      <path class="cls-3" d="M80.13,458.54l-6.39-.05c-.48-.4-.98-1.03-1.28-1.53-.92-1.49-1.19-3.19-.95-4.92.63-4.59,3.77-6.72,6.81-9.76,1.52-1.52,2.51-3.26,3.37-5.21.7-1.59,1.28-3.31,2.17-4.8.58-.97,1.42-1.93,2.38-2.54.52-.33,1.38-.74,2-.47,1.09.46.88,2.76.76,3.64-.47,3.43-4.98,8.65-7.33,11.16-2.43,2.59-3.66,5.16-3.94,8.73-.14,1.69.27,3.31,1.32,4.65.31.4.68.77,1.08,1.1"/>
      <path class="cls-3" d="M64.08,459.99l-4.41-.05c-.35-.42-.68-1.03-.87-1.47-.69-1.56-.86-3.31-.7-5,.44-4.5,2.47-6.39,4.96-9.81,1.15-1.58,1.85-3.35,2.44-5.2.51-1.59.92-3.28,1.58-4.81.37-.85.91-1.77,1.59-2.41.24-.24.82-.71,1.2-.6.87.24.66,3.15.61,3.73-.34,3.39-3.43,8.4-5.34,11.21-1.86,2.73-2.66,5.35-2.85,8.67-.09,1.58.16,3.18.94,4.57.23.41.52.81.85,1.17"/>
      <path class="cls-7" d="M87,430.76c-.81-.3-2,.69-2.66,2.2-.65,1.51-.52,2.98.29,3.27.81.3,2-.69,2.66-2.2.65-1.51.52-2.98-.29-3.27"/>
      <path class="cls-7" d="M86.47,431.52s-.28.4-.47.37c-.18-.03-.36-.19-.54-.05-.18.14-.4.47-.58.79-.18.33-.23.57-.23.57,0,0,.35-.41.67-.44.31-.03.48.01.48.01l.75-1.07.24.59-.68,1.02s.13.31.11.6c-.02.29-.11.54-.11.54,0,0,.4-.4.63-1.05.24-.69.32-1.67-.27-1.87"/>
      <path class="cls-7" d="M69.26,432.23c-.58-.23-1.35.67-1.73,2.02-.38,1.34-.22,2.62.36,2.85.58.23,1.35-.67,1.73-2.02.38-1.34.22-2.62-.36-2.85"/>
      <path class="cls-6" d="M174.17,552.72c-5.36,0-9.7,4.35-9.7,9.7s4.35,9.7,9.7,9.7c5.36,0,9.7-4.35,9.7-9.7s-4.35-9.7-9.7-9.7"/>
      <path class="cls-3" d="M174.17,555.66c-3.73,0-6.76,3.03-6.76,6.76s3.03,6.76,6.76,6.76c3.73,0,6.76-3.03,6.76-6.76s-3.03-6.76-6.76-6.76"/>
      <path class="cls-7" d="M174.57,557.89c-2.68,0-4.85,2.17-4.85,4.85,0,2.68,2.17,4.85,4.85,4.85,2.68,0,4.85-2.17,4.85-4.85s-2.17-4.85-4.85-4.85"/>
      <path class="cls-3" d="M172.71,565.12c.51.4,1.16.64,1.86.64,1.67,0,3.02-1.35,3.02-3.02,0-1.32-.85-2.44-2.03-2.85.7.55,1.16,1.41,1.16,2.38,0,1.67-1.35,3.02-3.02,3.02-.35,0-.68-.06-.99-.17"/>
      <path class="cls-6" d="M198.07,547.07s20.31-19.86,43.38-22.37c2.82,9.72-2.99,28.47-2.99,28.47,0,0-7.94,6.63-17.16,9.37-16.44-4.67-23.23-15.47-23.23-15.47Z"/>
      <path class="cls-7" d="M207.98,547.14c7.44-5.74,16.54-9.87,21.59-11.85-1.07,7.4-3.12,14-3.12,14,0,0-3.19,2.65-7.86,5.29-3.05-1.44-8.48-3.7-10.61-7.43Z"/>
    </g>
    <g id="HELM_MITTE_CHIEFS">
      <g>
        <path class="cls-11" d="M509.37,443.35c11.5-74.33-14.52-118.65-38.38-142.75-20.32-20.52-42.18-30.01-51.64-33.42-2.95-3.57-7.94-8.43-15.73-12.77l-.93-.52-1.01-.35c-1.95-.68-5.58-1.96-33.66-4.18-2.01-.16-4.05-.24-6.06-.24s-4.05.08-6.06.24c-28.08,2.23-31.71,3.5-33.66,4.18l-1.01.35-.93.52c-7.79,4.35-12.77,9.2-15.73,12.77-9.46,3.41-31.32,12.9-51.64,33.42-23.86,24.1-49.88,68.42-38.38,142.72.47,3.1.96,6.46,1.49,10.06l.47,3.16c-1.58,11.8-2.21,24.53-1.88,37.82l.09,3.75,2.45,2.84c.84.97,3.68,3.99,7.95,5.74l.49.98c5.05,21.43,10.96,34.93,18.59,42.47l.79.78.91.63c.91.63,1.87,1.18,2.85,1.65,1.23.58,2.53,1.01,3.89,1.28.5.67.96,1.29,1.41,1.87,2.96,23.69,4.86,37.83,5.83,43.22,1.95,10.93,10.93,29.5,29.79,45.87,12.47,10.82,33.28,23.97,62.51,26.54v.43l10.28.02,10.74-.02v-.43c29.23-2.57,50.04-15.73,62.51-26.54,18.87-16.37,27.84-34.94,29.79-45.87.96-5.39,2.87-19.54,5.83-43.22.56-.72,1.14-1.49,1.75-2.33.72-.23,1.41-.5,2.08-.82.98-.46,1.94-1.02,2.85-1.64l.92-.63.79-.78c6.97-6.89,12.43-18.56,17.17-36.71,1.14-2.24,2.27-4.48,3.39-6.74,4.27-1.75,7.11-4.77,7.95-5.74l2.45-2.84.09-3.75c.38-15.29-.5-29.71-2.62-42.85.42-2.88.83-5.63,1.21-8.17ZM288.91,585.76c-.25-1.82-.52-3.8-.79-5.91,4.96,1.91,10.32,3.68,15.84,5.23l2.1,35.62c-9.19-9.24-15.31-21.57-17.15-34.94ZM386.64,638.87c-11.95,3.51-21.77,3.96-23.94,4.02-2.17-.06-11.99-.51-23.94-4.02l-2.82-47.7c5.94.54,11.63.76,16.25.86v.11h10.53s6.67,0,6.67,0l3.81-.04v-.07c4.63-.1,10.31-.32,16.25-.86l-2.82,47.7ZM436.49,585.76c-1.84,13.37-7.96,25.71-17.15,34.94l2.1-35.62c5.52-1.55,10.88-3.32,15.84-5.23-.27,2.11-.54,4.08-.79,5.91Z"/>
        <path class="cls-16" d="M411.7,277.68s-3.67-6.64-14.1-12.47c-3.61-1.26-21.59-2.81-30.55-3.52-3.39-.27-6.78-.27-10.17,0-8.95.71-26.93,2.26-30.55,3.52-10.43,5.82-14.1,12.47-14.1,12.47,0,0-106.18,29.75-85.44,163.78,4.6,30.29,11.14,85.09,26.11,99.88.41.28.8.5,1.17.68,1.87.89,4.24.29,5.52-1.33,11.36-14.4-17.5-62.45-19.85-92.02-2.47-31.02,36.17-29.6,36.17-29.6,28.12.82,77.36,1.37,86.04,1.09,8.68.27,57.92-.27,86.04-1.09,0,0,38.64-1.43,36.17,29.6-2.35,29.57-31.21,77.62-19.85,92.02,1.28,1.62,3.66,2.22,5.52,1.33.37-.18.76-.4,1.17-.68,14.97-14.79,21.51-69.6,26.11-99.88,20.75-134.02-85.44-163.78-85.44-163.78Z"/>
        <path class="cls-17" d="M239.69,339.52c11.91,7.68,30.56,20.27,52.91,37.3-8.19-23.24-21.95-50.98-30.66-67.71-8.08,8.12-15.86,18.14-22.25,30.42ZM461.43,308.55c-8.7,16.67-22.67,44.77-30.95,68.26,22.76-17.33,41.66-30.06,53.54-37.7-6.5-12.37-14.41-22.43-22.59-30.56Z"/>
        <path class="cls-16" d="M446.36,295.7c-18.49-13.49-34.66-18.02-34.66-18.02,0,0-3.67-6.64-14.1-12.47-3.61-1.26-21.59-2.81-30.55-3.52-3.39-.27-6.78-.27-10.17,0-8.95.71-26.93,2.26-30.55,3.52-10.43,5.82-14.1,12.47-14.1,12.47,0,0-16.17,4.53-34.66,18.02,17.77,37.24,31.2,88.87,39.1,124.2,20.78.3,40.16.43,45.3.26,5.14.16,24.51.04,45.3-.26,7.9-35.33,21.33-86.96,39.1-124.2Z"/>
        <path class="cls-11" d="M314.5,281.93c1.59-.49,4.08-.57,5.21.57-1.68,1.35-4.24,4.58-5.54,6.92-1.09-.8-2.31-1.91-2.9-3.15-.11.33-.17.67-.21,1.01-2.25,11.98,5.72,26.53,13.79,6.63,8.29-20.46,2.74-25.59-10.34-11.98Z"/>
        <path class="cls-11" d="M410.28,281.93c-1.59-.49-4.08-.57-5.21.57,1.68,1.35,4.24,4.58,5.54,6.92,1.09-.8,2.31-1.91,2.9-3.15.11.33.17.67.21,1.01,2.25,11.98-5.72,26.53-13.79,6.63-8.29-20.46-2.74-25.59,10.34-11.98Z"/>
        <g>
          <path class="cls-10" d="M419.79,378.65l-.95-1.38-1.62-.44c-19.92-5.48-39.86-6.29-49.98-6.29h-10.57c-10.12,0-30.06.82-49.98,6.29l-1.62.44-.95,1.38c-7.94,11.53-12.46,41.03-3.09,50.89l.22.22c3.82,3.51,22.69,5.36,56.09,5.51h0s4.6.01,4.6.01h4.6c33.41-.17,52.28-2.02,56.09-5.52l.22-.22c9.37-9.86,4.85-39.36-3.09-50.89Z"/>
          <path class="cls-9" d="M413.83,382.12c-25.74-7.08-77.99-7.08-103.73,0-6.71,9.75-10.48,35.85-3.4,43.3,4.5,4.14,55.27,4.14,55.27,4.14,0,0,50.76,0,55.27-4.14,7.08-7.45,3.31-33.56-3.4-43.3Z"/>
          <path class="cls-11" d="M351.7,672.9v-.47c-29.13-2.68-49.88-15.81-62.34-26.62-18.96-16.45-27.99-35.14-29.95-46.15-.96-5.39-2.86-19.5-5.81-43.11-10.19-13.16-20.23-32.2-28.83-49.46-4.28-1.8-7.12-4.82-7.96-5.8l-2.57-2.97-.1-3.92c-.88-35.71,5.3-66.97,16.52-83.62,3.54-5.25,8.94-9.05,15.2-10.68,2.78-.72,7.74-1.47,32.5-1.47,18.59,0,42,.43,60.8.77,9.58.17,17.87.32,23.59.38,5.63-.06,13.92-.21,23.5-.38,18.81-.34,42.22-.77,60.8-.77,24.76,0,29.72.75,32.42,1.45,6.34,1.66,11.74,5.45,15.28,10.7,11.22,16.66,17.39,47.92,16.52,83.62l-.1,3.92-2.57,2.97c-.84.98-3.69,4-7.96,5.8-8.6,17.26-18.64,36.3-28.83,49.46-2.95,23.62-4.85,37.72-5.81,43.11-1.97,11.01-10.99,29.7-29.95,46.15-12.46,10.81-33.21,23.95-62.34,26.62v.47l-10.79.02-11.2-.02ZM339.23,638.5c11.73,3.4,21.32,3.84,23.48,3.9,2.16-.06,11.75-.5,23.48-3.9l2.76-46.79c-5.55.49-10.85.7-15.24.8v.08l-4.3.04h-6.67s-11.02,0-11.02,0v-.12c-4.4-.1-9.69-.32-15.24-.8l2.76,46.79ZM288.71,580.6c.23,1.79.46,3.49.68,5.09,1.77,12.81,7.49,24.68,16.1,33.72l-2.01-33.96c-5.14-1.45-10.12-3.1-14.78-4.86ZM419.9,619.42c8.61-9.05,14.34-20.91,16.1-33.72.22-1.6.45-3.3.68-5.09-4.66,1.76-9.64,3.4-14.78,4.86l-2.01,33.96ZM281.05,512.71c19.68,12.56,60.28,16.14,81.67,16.25,21.35-.11,61.95-3.69,81.62-16.25,3.21-31.19,6.16-62.26,7.63-78l-89.23.89-89.32-.89c1.47,15.74,4.42,46.82,7.63,78Z"/>
          <path class="cls-9" d="M485.65,416.89c-2.08-3.09-5.28-5.27-8.89-6.2-.02,0-.03,0-.05-.01-9.11-2.37-88.03-.22-114.01.05-25.98-.26-104.9-2.42-114.01-.05-.02,0-.03,0-.05.01-3.61.94-6.81,3.11-8.89,6.2-8.69,12.9-15.55,40.51-14.65,77.23,0,0,3.36,3.9,7.13,3.34,8.47,17.18,20.32,40.69,31.86,54.66,2.74,22.04,5.05,39.66,6.11,45.61,3.66,20.5,35.9,64.32,92.47,64.23h0s.02,0,.03,0,.02,0,.03,0h0c56.57.09,88.8-43.73,92.47-64.23,1.06-5.95,3.37-23.57,6.11-45.61,11.54-13.97,23.39-37.48,31.86-54.66,3.77.55,7.13-3.34,7.13-3.34.9-36.71-5.96-64.33-14.65-77.23ZM475.74,424.36c.6.09,1.9.25,2.26.28,8.71.62,13.36,40.72,13.36,40.72,0,0-7.37,17.51-24.29,39.44,4-33.35,7-66.06,8.67-80.44ZM247.4,424.64c.36-.03,1.66-.19,2.26-.28,1.67,14.38,4.67,47.09,8.67,80.44-16.93-21.92-24.29-39.44-24.29-39.44,0,0,4.65-40.1,13.36-40.72ZM233.61,481.64s11.99,23.69,26.62,38.92c.64,5.29,1.28,10.53,1.9,15.63-11.29-19.02-28.52-54.56-28.52-54.56ZM271.88,530.38c9.87,6.82,22.28,12.55,40.29,16.15l1.15,19.38c-13.51-2.94-27.59-7.75-39.27-15.59-.72-6.44-1.45-13.13-2.17-19.94ZM309.78,637.14c-17.22-11.19-28.44-29.6-31.24-49.95-.97-7.07-2.03-15.6-3.13-24.99,8.96,5.52,22.89,10.92,38.56,14.67l3.84,64.91c-2.68-1.38-5.37-2.91-8.03-4.64ZM396.68,646.57c-16.37,6.07-30.65,6.72-33.98,6.79-3.33-.07-17.61-.73-33.98-6.79l-3.99-67.45c12.56,2.27,25.66,2.53,37.93,2.54h0s.02,0,.03,0,.02,0,.03,0h0c12.27-.01,25.38-.27,37.93-2.54l-3.99,67.45ZM401.33,567.9c-10.62,1.65-24.6,2.48-38.63,2.51-14.03-.03-28.01-.86-38.63-2.51l-1.16-19.58c11.19,1.53,24.28,2.35,39.79,2.27,15.51.08,28.59-.74,39.79-2.27l-1.16,19.58ZM446.87,587.19c-2.8,20.35-14.02,38.75-31.24,49.95-2.66,1.73-5.34,3.26-8.03,4.64l3.84-64.91c15.67-3.75,29.59-9.15,38.56-14.67-1.1,9.39-2.15,17.92-3.13,24.99ZM451.35,550.32c-11.68,7.84-25.76,12.65-39.27,15.59l1.15-19.38c18.01-3.6,30.43-9.33,40.29-16.15-.72,6.81-1.45,13.5-2.17,19.94ZM454.75,518.71c-24.75,20.25-84.76,21.18-92.05,21.22-7.29-.04-67.3-.97-92.05-21.22-4.89-47.03-9.26-95.08-9.26-95.08,0,0,0,0,0,0l101.27,1.01h0s.03,0,.03,0h.03s0,0,0,0l101.27-1.01s0,0,0,0c0,0-4.38,48.06-9.26,95.08ZM463.27,536.2c.62-5.11,1.26-10.34,1.9-15.63,14.63-15.23,26.62-38.92,26.62-38.92,0,0-17.23,35.54-28.52,54.56Z"/>
          <g>
            <g>
              <path class="cls-10" d="M310.37,428.5c-6.93-8.33-3.99-17.22-1.1-21.7l.39-.61c-.03-3.21.4-9.67,4.03-13.68,2.01-2.23,4.71-3.43,7.8-3.47h.23c3.42,0,6.16,1.07,8.16,3.19,3.69,3.92,3.32,10.03,3.04,14.49-.04.61-.07,1.2-.1,1.75l-.07,1.66-1.15,1.2c-4.52,4.73-2.29,11.01-.56,14.34.23.45.41,1.21.62,2.29.75,3.86-21.3.55-21.3.55Z"/>
              <path class="cls-9" d="M311.57,409.2s-6.5,10.05,1.1,18.08c2.7.61,13.18.86,13.18.67s-6.86-11.28,1.16-19.67c.25-5.76,1.78-14.95-6.86-14.83-8.64.12-7.42,14.22-7.42,14.22,0,0,8.4-.55,10.54,1.78-4.96-.61-11.71-.25-11.71-.25Z"/>
              <path class="cls-10" d="M312.36,418.54l7.69.35c.62.03,1.13.49,1.21,1.1.16,1.15.48,3.04.98,4.58.25.77-.32,1.56-1.13,1.52-2.33-.11-5.02-.33-6.55-.47-.83-.07-1.58-.54-2-1.26-.61-1.05-1.39-2.72-1.5-4.56-.04-.72.58-1.31,1.3-1.28Z"/>
              <ellipse class="cls-10" cx="320.18" cy="402.06" rx="5.68" ry="6.57"/>
            </g>
            <g>
              <path class="cls-10" d="M413.55,428.5c6.93-8.33,3.99-17.22,1.1-21.7l-.39-.61c.03-3.21-.4-9.67-4.03-13.68-2.01-2.23-4.71-3.43-7.8-3.47h-.23c-3.42,0-6.16,1.07-8.16,3.19-3.69,3.92-3.32,10.03-3.04,14.49.04.61.07,1.2.1,1.75l.07,1.66,1.15,1.2c4.52,4.73,2.29,11.01.56,14.34-.23.45-.41,1.21-.62,2.29-.75,3.86,21.3.55,21.3.55Z"/>
              <path class="cls-9" d="M412.36,409.2s6.5,10.05-1.1,18.08c-2.7.61-13.18.86-13.18.67s6.86-11.28-1.16-19.67c-.25-5.76-1.78-14.95,6.86-14.83,8.64.12,7.42,14.22,7.42,14.22,0,0-8.4-.55-10.54,1.78,4.96-.61,11.71-.25,11.71-.25Z"/>
              <path class="cls-10" d="M411.57,418.54l-7.69.35c-.62.03-1.13.49-1.21,1.1-.16,1.15-.48,3.04-.98,4.58-.25.77.32,1.56,1.13,1.52,2.33-.11,5.02-.33,6.55-.47.83-.07,1.58-.54,2-1.26.61-1.05,1.39-2.72,1.5-4.56.04-.72-.58-1.31-1.3-1.28Z"/>
              <ellipse class="cls-10" cx="403.75" cy="402.06" rx="5.68" ry="6.57"/>
            </g>
          </g>
        </g>
      </g>
      <path class="cls-10" d="M281.05,512.71c19.68,12.56,60.28,16.14,81.67,16.25,21.35-.11,61.95-3.69,81.62-16.25,3.21-31.19,6.16-62.26,7.63-78l-89.23.89-89.32-.89c1.47,15.74,4.42,46.82,7.63,78Z"/>
      <path class="cls-9" d="M417.96,522.78c10.2-2.43,19.56-5.7,26.39-10.07,3.21-31.19,6.16-62.26,7.63-78l-27.12.27c-.21,21.14-1.52,54.95-6.9,87.8Z"/>
      <path class="cls-9" d="M281.05,512.71c3.83,2.44,8.45,4.54,13.56,6.34-4.49-33.52-6.82-66.54-7.84-84.21l-13.35-.13c1.47,15.74,4.42,46.82,7.63,78Z"/>
      <path class="cls-9" d="M302.08,521.39c2.24.62,4.54,1.2,6.89,1.73-2.63-23.69-6.86-64.83-7.27-88.14l-6.47-.06c1.04,18.41,3.4,55.9,6.86,86.47Z"/>
    </g>
  </g>
</svg>